<svg xmlns="http://www.w3.org/2000/svg" viewBox="0 0 512 512"><defs><style>.cls-1{isolation:isolate;}.cls-11,.cls-2{fill:#fff;}.cls-3{opacity:0.5;}.cls-4{fill:#f2f2f2;}.cls-5{fill:#f5e159;}.cls-13,.cls-6,.cls-8{fill:#1a1a1a;mix-blend-mode:multiply;}.cls-6{opacity:0.2;}.cls-7{fill:#8cc63f;}.cls-8{opacity:0.31;}.cls-9{fill:#ec5e5e;}.cls-10{fill:#72ceeb;}.cls-11{stroke:#000;stroke-width:5px;}.cls-11,.cls-14{stroke-miterlimit:10;}.cls-12{fill:#f15a24;}.cls-13{opacity:0.1;}.cls-14{fill:none;stroke:#fff;stroke-width:10px;}</style></defs><g class="cls-1"><g id="圖層_1" data-name="圖層 1"><path class="cls-2" d="M479.33,512H32.67A32.6,32.6,0,0,1,0,479.54V32.46A32.6,32.6,0,0,1,32.67,0H479.33A32.6,32.6,0,0,1,512,32.46V479.54A32.6,32.6,0,0,1,479.33,512Z" transform="translate(0)"/><rect x="9.37" y="13.14" width="494.08" height="488.79" rx="34"/><g class="cls-3"><path class="cls-4" d="M57.44,239.92c-.54.9-.94,2.18-1.65,2.59s-2.45.5-2.66,0c-1.63-3.94-3-8.09-4.41-12.2a2.7,2.7,0,0,1,.45-1.54,7.77,7.77,0,0,1,1-1.3c2.43,3.54,4.88,7.08,7.26,10.7.23.35,0,1.18,0,1.78Z" transform="translate(0)"/><path class="cls-4" d="M173.64,214.83c-.34.41-.69,1.18-1,1.16-1.32-.05-3.07.93-3.73-1.23a15.17,15.17,0,0,1-.12-4.92c0-.46.64-1.26.94-1.21.85.08,4,5.3,3.92,6.2Z" transform="translate(0)"/><path class="cls-4" d="M139.16,195.17c-.71.93-1,1.53-1.36,1.73-2.84,1.51-4.53-.62-4.49-5.62,0-2.51-1.68-.48,0-1.73a1.19,1.19,0,0,1,1.32,0c1.55,1.81,3,3.74,4.52,5.62Z" transform="translate(0)"/><path class="cls-4" d="M174.18,26.51c-2.51.2-3.11-1.91-2.88-4.55a10.07,10.07,0,0,1,1.29-2.91,10.4,10.4,0,0,1,1,1,28.85,28.85,0,0,1,2,2.59,18.35,18.35,0,0,1,1.07,2.56l-2.43,1.31Z" transform="translate(0)"/><path class="cls-4" d="M95.39,125.06c2.28.18,3.11,1.36,2.84,4.62-.08,1-.87,1.94-1.34,2.89-.33-.37-.68-.75-1-1.15a22,22,0,0,1-2-2.59,15.12,15.12,0,0,1-1-2.56l2.41-1.21Z" transform="translate(0)"/><path class="cls-4" d="M135.23,144.62c1.46,1.11,1.52,4.85.06,6.26a.89.89,0,0,1-1,.1c-1.49-1.06-1.53-4.82-.07-6.23.22-.23.65-.1,1-.13Z" transform="translate(0)"/><path class="cls-4" d="M151.73,140.41l2,1.7c-.73.66-1.52,1.89-2.2,1.79-1.25-.18-2.42-1.13-3.63-1.79.93-1.5,2.11-2.23,3.83-1.7Z" transform="translate(0)"/><path class="cls-4" d="M36.76,138.65c-.32,1.66-2.68,2.11-4.68.8a2.34,2.34,0,0,1-.88-1.25c-.51-1.74,0-2.26,1.34-1.79s2.52.63,3.75,1.06c.23.07.32.78.47,1.18Z" transform="translate(0)"/><path class="cls-4" d="M19.51,116.55c-.49,1.58-1,3.14-1.46,4.72a22.77,22.77,0,0,1-1.36-4.72c-.08-.88.87-1.91,1.36-2.86l1.46,2.86Z" transform="translate(0)"/><path class="cls-4" d="M63.35,193.29c-1.44.17-2.87-.3-2.44-2.44s3.64-2,4.73-.12a1.84,1.84,0,0,1,.07,1.23,19.9,19.9,0,0,1-2.36,1.33Z" transform="translate(0)"/><path class="cls-4" d="M69.19,166.77c-1.45.15-2.88-.32-2.44-2.46s3.64-2,4.73-.1a1.85,1.85,0,0,1,.07,1.21c-.77.52-1.59.93-2.36,1.35Z" transform="translate(0)"/><path class="cls-4" d="M209.08,156.33c.07.88-.88,1.9-1.36,2.86-.49-1-1.44-2-1.36-2.86a21.76,21.76,0,0,1,1.36-4.72,22.94,22.94,0,0,1,1.36,4.72Z" transform="translate(0)"/><path class="cls-4" d="M77.62,150c-.32,1.66-2.69,2.11-4.69.81a2.41,2.41,0,0,1-.88-1.26c-.51-1.73,0-2.26,1.34-1.78s2.52.63,3.76,1.05c.22.08.31.78.47,1.18Z" transform="translate(0)"/><path class="cls-4" d="M13.66,30.17c.13,1.88-.24,3.74-1.89,3.17s-1.54-4.73-.08-6.13l1-.1c.4,1,.7,2.06,1,3.06Z" transform="translate(0)"/><path class="cls-4" d="M196.51,29.67c-.33,0-.76.1-1-.1-1.47-1.43-1.42-5.2.06-6.25a.85.85,0,0,1,1,.1c1.47,1.4,1.41,5.14-.05,6.25Z" transform="translate(0)"/><path class="cls-4" d="M228.89,41.52c-.68.1-1.47-1.13-2.21-1.76.74-.62,1.53-1.85,2.21-1.78,1.24.18,2.42,1.16,3.63,1.78-1.21.63-2.39,1.59-3.63,1.76Z" transform="translate(0)"/><path class="cls-4" d="M206.34,238.79c-1.45.18-2.88-.33-2.44-2.44s3.64-2,4.72-.12a1.84,1.84,0,0,1,.07,1.23,20.6,20.6,0,0,1-2.35,1.33Z" transform="translate(0)"/><path class="cls-4" d="M68.12,219.25c-.88.2-1.81.73-2.62.51S64,218.58,63.28,218c.73-.63,1.42-1.58,2.22-1.81a4.75,4.75,0,0,1,2.6.55c.4.18.68.83,1,1.26-.33.42-.66.88-1,1.3Z" transform="translate(0)"/><path class="cls-4" d="M77.92,204.69A23.22,23.22,0,0,1,80.3,206a1.84,1.84,0,0,1-.07,1.23,2.75,2.75,0,0,1-4.82-.07c-.54-1.21.73-2.47,2.51-2.49Z" transform="translate(0)"/><path class="cls-4" d="M25.42,231.21c-1.45.17-2.88-.31-2.44-2.44s3.64-2,4.73-.13a1.91,1.91,0,0,1,.07,1.23,23.54,23.54,0,0,1-2.36,1.34Z" transform="translate(0)"/><path class="cls-4" d="M173.74,31.63c-.34.8-.69,1.6-1,2.43-.32-.42-1-.93-.91-1.23a14.21,14.21,0,0,1,.91-2.56c.32.43.65.86,1,1.36Z" transform="translate(0)"/><path class="cls-4" d="M18.47,38.41l1,1.35a8.24,8.24,0,0,1-2,1.18c-.24.08-.64-.75-1-1.18.63-.45,1.27-.93,1.88-1.35Z" transform="translate(0)"/><path class="cls-4" d="M103.09,38.41l1,1.35a8,8,0,0,1-2,1.18c-.24.08-.64-.75-1-1.18.63-.45,1.27-.93,1.88-1.35Z" transform="translate(0)"/><path class="cls-4" d="M173.12,38.41l1,1.35a8,8,0,0,1-2,1.18c-.24.08-.63-.75-1-1.18.64-.45,1.27-.93,1.88-1.35Z" transform="translate(0)"/><path class="cls-4" d="M66.61,44.11l1-2.46c.33.42,1,.93.91,1.25a13.06,13.06,0,0,1-.91,2.54c-.32-.43-.65-.83-1-1.33Z" transform="translate(0)"/><path class="cls-4" d="M147.48,44.08c-.39.53-.72.93-1,1.36a13.06,13.06,0,0,1-.91-2.54c-.06-.32.58-.83.91-1.25.35.83.7,1.65,1,2.43Z" transform="translate(0)"/><path class="cls-4" d="M197.93,44.08l1-2.43c.33.42,1,.93.91,1.25a13.06,13.06,0,0,1-.91,2.54c-.32-.43-.65-.83-1-1.36Z" transform="translate(0)"/><path class="cls-4" d="M130,27.84c-.34.8-.69,1.6-1,2.43-.32-.43-1-.93-.91-1.23a13.94,13.94,0,0,1,.91-2.56c.32.43.65.85,1,1.36Z" transform="translate(0)"/><path class="cls-4" d="M68.69,74.42l-1,1.35a13.92,13.92,0,0,1-.91-2.53c0-.33.59-.83.91-1.26.35.83.7,1.66,1,2.44Z" transform="translate(0)"/><path class="cls-4" d="M194.16,73.34l-1,2.43c-.33-.42-1-.93-.92-1.25a14.34,14.34,0,0,1,.92-2.54l1,1.36Z" transform="translate(0)"/><path class="cls-4" d="M254.56,45.44c-.45-.75-1.4-1.88-1.26-2.19,1-2.28,1.86-.72,2.53.53a2.13,2.13,0,0,1,0,1.61c-.22.27-.82,0-1.26,0Z" transform="translate(0)"/><path class="cls-4" d="M258.54,47.65c-.33.43-.81,1.25-.92,1.18a6.74,6.74,0,0,1-1.72-1.73,2.08,2.08,0,0,1,0-1.59,1,1,0,0,1,1.23,0,13.37,13.37,0,0,1,1.4,2.16Z" transform="translate(0)"/><path class="cls-4" d="M11.17,50.59c.39-.51.72-.93,1-1.36a13.94,13.94,0,0,1,.91,2.56c.06.3-.59.8-.91,1.23-.35-.83-.7-1.66-1-2.43Z" transform="translate(0)"/><path class="cls-4" d="M106,52.47l-1.88-1.33c.32-.43.72-1.26,1-1.21a8.39,8.39,0,0,1,2,1.21c-.33.4-.65.83-1,1.33Z" transform="translate(0)"/><path class="cls-4" d="M224.19,51.69c.34-.8.69-1.63,1-2.46.33.43,1,.93.92,1.26a13.25,13.25,0,0,1-.92,2.53c-.32-.43-.64-.83-1-1.33Z" transform="translate(0)"/><path class="cls-4" d="M170.82,54.38l-1,2.43c-.32-.42-1-.93-.91-1.25a14.58,14.58,0,0,1,.91-2.54l1,1.36Z" transform="translate(0)"/><path class="cls-4" d="M254.4,53a13.85,13.85,0,0,1,.92,2.54c.05.32-.59.83-.92,1.25a14.13,14.13,0,0,1-.91-2.53c-.05-.33.59-.83.91-1.26Z" transform="translate(0)"/><path class="cls-4" d="M147.48,153c-.34.78-.69,1.61-1,2.44-.33-.43-1-.93-.91-1.26a12.74,12.74,0,0,1,.91-2.53c.32.42.65.82,1,1.35Z" transform="translate(0)"/><path class="cls-4" d="M80.36,157.83l-1,1.36a14,14,0,0,1-.92-2.56c0-.3.59-.81.92-1.23.34.83.69,1.65,1,2.43Z" transform="translate(0)"/><path class="cls-4" d="M21.39,143.47c-.62-.43-1.25-.88-1.88-1.36.32-.4.71-1.25.95-1.18a8.88,8.88,0,0,1,2,1.18c-.32.43-.64.86-1,1.36Z" transform="translate(0)"/><path class="cls-4" d="M93.91,140.23a13.79,13.79,0,0,1,.92,2.54c0,.32-.59.83-.92,1.25a15.34,15.34,0,0,1-.91-2.53c0-.33.59-.83.91-1.26Z" transform="translate(0)"/><path class="cls-4" d="M13.25,145.38c-.34.78-.69,1.61-1,2.43-.32-.42-1-.93-.91-1.25a13.75,13.75,0,0,1,.91-2.54c.32.43.65.83,1,1.36Z" transform="translate(0)"/><path class="cls-4" d="M70.73,147.81c-.45-.75-1.41-1.88-1.27-2.18,1-2.29,1.86-.73,2.54.53.2.37,0,1.08,0,1.65Z" transform="translate(0)"/><path class="cls-4" d="M87.66,144.57l1.88,1.34c-.33.42-.72,1.25-1,1.2a8.48,8.48,0,0,1-2-1.2l1-1.34Z" transform="translate(0)"/><path class="cls-4" d="M191.25,146.46l-1,1.35a13.45,13.45,0,0,1-.91-2.53c-.06-.33.58-.83.91-1.26.35.83.7,1.66,1,2.44Z" transform="translate(0)"/><path class="cls-4" d="M250,149.7a8.48,8.48,0,0,1-2,1.2c-.24,0-.64-.78-1-1.2a9.12,9.12,0,0,1,2-1.18c.24-.08.63.78,1,1.18Z" transform="translate(0)"/><path class="cls-4" d="M30.76,187.09c-.34.77-.69,1.6-1,2.43-.33-.42-1-.93-.91-1.25a13.06,13.06,0,0,1,.91-2.54c.32.43.65.83,1,1.36Z" transform="translate(0)"/><path class="cls-4" d="M132,189.52c-.45-.75-1.41-1.88-1.27-2.18,1-2.29,1.86-.73,2.54.52.2.38,0,1.08,0,1.66Z" transform="translate(0)"/><path class="cls-4" d="M258.36,188.17l-1,1.35a13.94,13.94,0,0,1-.91-2.56c-.05-.3.59-.8.91-1.23.35.83.7,1.63,1,2.44Z" transform="translate(0)"/><path class="cls-4" d="M205.84,192l-1,1.35a13.68,13.68,0,0,1-.91-2.56c-.06-.3.59-.8.91-1.23.35.83.7,1.63,1,2.44Z" transform="translate(0)"/><path class="cls-4" d="M194.59,195.2a7.92,7.92,0,0,1-2,1.18c-.24.07-.64-.76-1-1.18a9.12,9.12,0,0,1,2-1.18c.24-.08.63.78,1,1.18Z" transform="translate(0)"/><path class="cls-4" d="M235,195.75c-.39.5-.72.93-1,1.36a14,14,0,0,1-.91-2.57c-.06-.3.59-.8.91-1.23l1,2.44Z" transform="translate(0)"/><path class="cls-4" d="M251.49,166.77a13.75,13.75,0,0,1,.91,2.54c0,.33-.59.83-.91,1.25a14.24,14.24,0,0,1-.92-2.53c0-.33.59-.83.92-1.26Z" transform="translate(0)"/><path class="cls-4" d="M130.81,173c.34-.78.69-1.61,1-2.44.32.43,1,.93.91,1.23a14,14,0,0,1-.91,2.57l-1-1.36Z" transform="translate(0)"/><path class="cls-4" d="M40.35,176.79l1-2.43c.32.42,1,.92.91,1.23a14.21,14.21,0,0,1-.91,2.56c-.32-.43-.65-.86-1-1.36Z" transform="translate(0)"/><path class="cls-4" d="M150.4,180.58c-.39.51-.72.93-1,1.36a14,14,0,0,1-.92-2.56c-.05-.3.59-.81.92-1.23.35.83.7,1.63,1,2.43Z" transform="translate(0)"/><path class="cls-4" d="M103.71,183.3c-.34.77-.69,1.6-1,2.43-.32-.43-1-.93-.91-1.25a13.75,13.75,0,0,1,.91-2.54c.32.43.65.83,1,1.36Z" transform="translate(0)"/><path class="cls-4" d="M67.65,87.15a13.45,13.45,0,0,1,.91,2.53c.06.33-.58.83-.91,1.26a14.58,14.58,0,0,1-.91-2.54c0-.32.59-.83.91-1.25Z" transform="translate(0)"/><path class="cls-4" d="M135.8,89.58l-1,1.36a14.63,14.63,0,0,1-.92-2.54c0-.32.59-.83.92-1.25l1,2.43Z" transform="translate(0)"/><path class="cls-4" d="M261.28,89.58c-.39.5-.71.93-1,1.36a14.58,14.58,0,0,1-.91-2.54c-.06-.32.59-.83.91-1.25.35.83.7,1.65,1,2.43Z" transform="translate(0)"/><path class="cls-4" d="M108.93,99.07l1,1.36a8.88,8.88,0,0,1-2,1.18c-.24.08-.63-.78-1-1.18.63-.48,1.26-.93,1.88-1.36Z" transform="translate(0)"/><path class="cls-4" d="M235.86,77.13l1-1.36a14.58,14.58,0,0,1,.91,2.54c.05.32-.59.83-.91,1.25-.35-.83-.7-1.65-1-2.43Z" transform="translate(0)"/><path class="cls-4" d="M40.35,82c.34-.78.69-1.61,1-2.44.32.43,1,.93.91,1.26a13.75,13.75,0,0,1-.91,2.54c-.32-.43-.65-.83-1-1.36Z" transform="translate(0)"/><path class="cls-4" d="M27.84,85.79c-.39.53-.72.93-1,1.36a13.75,13.75,0,0,1-.91-2.54c-.06-.33.59-.83.91-1.25.35.82.7,1.65,1,2.43Z" transform="translate(0)"/><path class="cls-4" d="M243.77,85.79c-.39.53-.71.93-1,1.36a13.75,13.75,0,0,1-.91-2.54c0-.33.59-.83.91-1.25.35.82.7,1.65,1,2.43Z" transform="translate(0)"/><path class="cls-4" d="M180.42,131.29l1-2.43c.32.42,1,.92.91,1.25a15.45,15.45,0,0,1-.91,2.54c-.33-.43-.65-.86-1-1.36Z" transform="translate(0)"/><path class="cls-4" d="M29.88,136.44c-.45-.75-1.41-1.88-1.27-2.19,1-2.28,1.86-.72,2.54.53a2,2,0,0,1,0,1.58c-.22.3-.82.08-1.25.08Z" transform="translate(0)"/><path class="cls-4" d="M51.18,134c-.34.78-.69,1.61-1,2.44-.33-.43-1-.93-.92-1.26a13.5,13.5,0,0,1,.92-2.53c.32.42.64.85,1,1.35Z" transform="translate(0)"/><path class="cls-4" d="M117.68,133.2c.39.5.71.93,1,1.33a8.53,8.53,0,0,1-2,1.21c-.24,0-.64-.78-1-1.21l1.88-1.33Z" transform="translate(0)"/><path class="cls-4" d="M176.66,135.08c-.39.5-.72.93-1,1.36a14.58,14.58,0,0,1-.91-2.54c-.06-.32.59-.83.91-1.25.35.83.7,1.65,1,2.43Z" transform="translate(0)"/><path class="cls-4" d="M152.27,102.31a13.85,13.85,0,0,1,.92,2.54c.05.33-.59.83-.92,1.26a15.45,15.45,0,0,1-.91-2.54c-.05-.33.59-.83.91-1.26Z" transform="translate(0)"/><path class="cls-4" d="M232.94,103.67c.39-.5.72-.93,1-1.36a14.58,14.58,0,0,1,.91,2.54c.05.33-.59.83-.91,1.26-.35-.83-.7-1.66-1-2.44Z" transform="translate(0)"/><path class="cls-4" d="M35.13,106.66c.62.42,1.25.88,1.88,1.33-.32.43-.72,1.25-1,1.2A8.09,8.09,0,0,1,34.1,108c.32-.4.64-.83,1-1.33Z" transform="translate(0)"/><path class="cls-4" d="M169.94,109.9c-.45-.76-1.4-1.89-1.27-2.19,1-2.28,1.86-.73,2.54.53.21.38,0,1.1,0,1.66Z" transform="translate(0)"/><path class="cls-4" d="M173.92,112.11c-.34.42-.81,1.23-.92,1.15a6.08,6.08,0,0,1-1.72-1.71,2,2,0,0,1,0-1.58,1,1,0,0,1,1.22,0,13,13,0,0,1,1.41,2.16Z" transform="translate(0)"/><path class="cls-4" d="M46.19,119.92c.34-.78.69-1.61,1-2.44.32.43,1,.93.91,1.26a14.48,14.48,0,0,1-.91,2.53l-1-1.35Z" transform="translate(0)"/><path class="cls-4" d="M79.75,121.82l1,1.34a8.27,8.27,0,0,1-2,1.2c-.24,0-.63-.78-.95-1.2.63-.46,1.26-.91,1.88-1.34Z" transform="translate(0)"/><path class="cls-4" d="M100.79,213.6l-1,2.46c-.32-.42-1-.95-.91-1.25a13.75,13.75,0,0,1,.91-2.54c.32.43.65.83,1,1.33Z" transform="translate(0)"/><path class="cls-4" d="M42.85,221.74a7.47,7.47,0,0,1-2,1.18c-.24.07-.63-.75-1-1.18a8,8,0,0,1,2-1.18c.24-.08.64.75,1,1.18Z" transform="translate(0)"/><path class="cls-4" d="M54.1,221.19l-1,2.46c-.32-.43-1-1-.91-1.26a12.92,12.92,0,0,1,.91-2.53c.33.4.65.82,1,1.33Z" transform="translate(0)"/><path class="cls-4" d="M115.8,221.74a7.47,7.47,0,0,1-2,1.18c-.24.07-.63-.75-1-1.18a8,8,0,0,1,2-1.18c.24-.08.64.75,1,1.18Z" transform="translate(0)"/><path class="cls-4" d="M146,220.38c.61.45,1.24.91,1.88,1.36-.33.43-.72,1.25-1,1.18a7.47,7.47,0,0,1-2-1.18c.32-.43.65-.83,1-1.36Z" transform="translate(0)"/><path class="cls-4" d="M215.43,222.29c.34-.8.69-1.63,1-2.43.33.4,1,.93.91,1.23a13.48,13.48,0,0,1-.91,2.56c-.32-.43-.65-.86-1-1.36Z" transform="translate(0)"/><path class="cls-4" d="M91.42,200.34c-.61-.42-1.25-.9-1.88-1.35.32-.4.72-1.26,1-1.18a9.37,9.37,0,0,1,2,1.18l-1,1.35Z" transform="translate(0)"/><path class="cls-4" d="M56.4,201.45c.39.5.72.9,1,1.33a7.21,7.21,0,0,1-2,1.18c-.24.08-.63-.75-1-1.18l1.88-1.33Z" transform="translate(0)"/><path class="cls-4" d="M127.89,206l1-1.33a13.75,13.75,0,0,1,.91,2.54c.06.32-.59.82-.91,1.25l-1-2.46Z" transform="translate(0)"/><path class="cls-4" d="M182.49,206c-.33.8-.69,1.63-1,2.46-.33-.43-1-.93-.92-1.25a13.79,13.79,0,0,1,.92-2.54c.32.43.64.83,1,1.33Z" transform="translate(0)"/><path class="cls-4" d="M214.59,209.81l-1,2.46c-.32-.42-1-.93-.91-1.25a13.75,13.75,0,0,1,.91-2.54l1,1.33Z" transform="translate(0)"/><path class="cls-4" d="M176,238.26c-.61-.45-1.25-.9-1.88-1.35.32-.43.72-1.26,1-1.18a8,8,0,0,1,2,1.18l-1,1.35Z" transform="translate(0)"/><path class="cls-4" d="M144.56,240.14l-1,2.47c-.32-.43-1-1-.91-1.26a13.25,13.25,0,0,1,.91-2.54l1,1.33Z" transform="translate(0)"/><path class="cls-4" d="M223.34,241.25l-1,1.36a14.07,14.07,0,0,1-.92-2.57c0-.3.59-.82.92-1.23.35.81.7,1.64,1,2.44Z" transform="translate(0)"/><path class="cls-4" d="M76.83,243.13c.39.53.71.93,1,1.36a8.24,8.24,0,0,1-2,1.18c-.24.07-.64-.75-1-1.18.63-.45,1.27-.9,1.88-1.36Z" transform="translate(0)"/><path class="cls-4" d="M197.08,245c-.39.5-.71.93-1,1.36a15,15,0,0,1-.91-2.56c0-.31.59-.83.91-1.23.36.8.71,1.63,1,2.43Z" transform="translate(0)"/><path class="cls-4" d="M158.27,227.44c-.45-.75-1.4-1.88-1.27-2.19,1-2.28,1.86-.72,2.54.53a2.05,2.05,0,0,1,0,1.58c-.21.28-.82.08-1.25.08Z" transform="translate(0)"/><path class="cls-4" d="M162.25,229.65c-.34.43-.82,1.23-.92,1.15a6,6,0,0,1-1.72-1.73,2,2,0,0,1,0-1.58,1,1,0,0,1,1.22,0,12.58,12.58,0,0,1,1.41,2.16Z" transform="translate(0)"/><path class="cls-4" d="M76,234.47c-.39-.5-.72-.93-1-1.36a8.38,8.38,0,0,1,2-1.18c.24-.07.63.76,1,1.18L76,234.47Z" transform="translate(0)"/><path class="cls-4" d="M102.25,231.76c.61.45,1.24.9,1.88,1.35-.33.43-.72,1.26-1,1.18a8,8,0,0,1-2-1.18c.32-.42.65-.82,1-1.35Z" transform="translate(0)"/><path class="cls-4" d="M112.88,233.11a8,8,0,0,1-2,1.18c-.24.08-.63-.75-1-1.18a8.59,8.59,0,0,1,2-1.18c.24-.07.64.76,1,1.18Z" transform="translate(0)"/><path class="cls-4" d="M258.78,233.11a7.21,7.21,0,0,1-2,1.18c-.24.08-.63-.75-1-1.18a8.59,8.59,0,0,1,2-1.18c.24-.07.64.76,1,1.18Z" transform="translate(0)"/><path class="cls-4" d="M291.75,239.92c-.53.9-.94,2.18-1.64,2.59s-2.46.5-2.67,0c-1.63-3.94-3-8.09-4.41-12.2-.12-.38.22-1.08.45-1.54a9,9,0,0,1,1-1.3c2.43,3.54,4.88,7.08,7.26,10.7.23.35,0,1.18,0,1.78Z" transform="translate(0)"/><path class="cls-4" d="M408,214.83c-.34.41-.69,1.18-1,1.16-1.31-.05-3.07.93-3.73-1.23a14.91,14.91,0,0,1-.11-4.92c0-.46.63-1.26.94-1.21.84.08,4,5.3,3.91,6.2Z" transform="translate(0)"/><path class="cls-4" d="M373.47,195.17c-.71.93-1,1.53-1.36,1.73-2.83,1.51-4.53-.62-4.49-5.62,0-2.51-1.68-.48,0-1.73a1.18,1.18,0,0,1,1.31,0c1.56,1.81,3,3.74,4.52,5.62Z" transform="translate(0)"/><path class="cls-4" d="M408.49,26.51c-2.51.2-3.1-1.91-2.88-4.55a10.07,10.07,0,0,1,1.29-2.91,10.4,10.4,0,0,1,1,1,29,29,0,0,1,2,2.59,19.61,19.61,0,0,1,1.06,2.56l-2.43,1.31Z" transform="translate(0)"/><path class="cls-4" d="M329.7,125.06c2.29.18,3.11,1.36,2.84,4.62-.08,1-.87,1.94-1.34,2.89-.33-.37-.67-.75-1-1.15a22,22,0,0,1-2-2.59,15.12,15.12,0,0,1-1-2.56l2.41-1.21Z" transform="translate(0)"/><path class="cls-4" d="M369.54,144.62c1.46,1.11,1.52,4.85.06,6.26a.89.89,0,0,1-1,.1c-1.49-1.06-1.53-4.82-.07-6.23.23-.23.65-.1,1-.13Z" transform="translate(0)"/><path class="cls-4" d="M386,140.41l2,1.7c-.74.66-1.53,1.89-2.21,1.79-1.24-.18-2.42-1.13-3.63-1.79.94-1.5,2.11-2.23,3.83-1.7Z" transform="translate(0)"/><path class="cls-4" d="M271.08,138.65c-.32,1.66-2.69,2.11-4.69.8a2.34,2.34,0,0,1-.88-1.25c-.51-1.74,0-2.26,1.34-1.79s2.52.63,3.75,1.06c.23.07.32.78.48,1.18Z" transform="translate(0)"/><path class="cls-4" d="M253.82,116.55c-.49,1.58-1,3.14-1.46,4.72a23.4,23.4,0,0,1-1.36-4.72c-.07-.88.87-1.91,1.36-2.86l1.46,2.86Z" transform="translate(0)"/><path class="cls-4" d="M297.67,193.29c-1.45.17-2.88-.3-2.44-2.44s3.64-2,4.72-.12A1.84,1.84,0,0,1,300,192a20.6,20.6,0,0,1-2.35,1.33Z" transform="translate(0)"/><path class="cls-4" d="M303.5,166.77c-1.45.15-2.88-.32-2.44-2.46s3.64-2,4.73-.1a1.78,1.78,0,0,1,.07,1.21,25.49,25.49,0,0,1-2.36,1.35Z" transform="translate(0)"/><path class="cls-4" d="M443.39,156.33c.07.88-.87,1.9-1.36,2.86-.49-1-1.43-2-1.36-2.86a22.33,22.33,0,0,1,1.36-4.72,22.33,22.33,0,0,1,1.36,4.72Z" transform="translate(0)"/><path class="cls-4" d="M311.93,150c-.32,1.66-2.69,2.11-4.69.81a2.41,2.41,0,0,1-.88-1.26c-.51-1.73,0-2.26,1.35-1.78s2.51.63,3.75,1.05c.22.08.31.78.47,1.18Z" transform="translate(0)"/><path class="cls-4" d="M248,30.17c.13,1.88-.24,3.74-1.88,3.17s-1.55-4.73-.09-6.13l.95-.1c.41,1,.7,2.06,1,3.06Z" transform="translate(0)"/><path class="cls-4" d="M430.82,29.67c-.33,0-.76.1-1-.1-1.46-1.43-1.42-5.2.07-6.25a.85.85,0,0,1,1,.1c1.46,1.4,1.4,5.14-.06,6.25Z" transform="translate(0)"/><path class="cls-4" d="M463.2,41.52c-.68.1-1.47-1.13-2.2-1.76.73-.62,1.52-1.85,2.2-1.78,1.25.18,2.43,1.16,3.63,1.78-1.2.63-2.38,1.59-3.63,1.76Z" transform="translate(0)"/><path class="cls-4" d="M440.65,238.79c-1.45.18-2.88-.33-2.44-2.44s3.64-2,4.72-.12a1.86,1.86,0,0,1,.08,1.23,21.61,21.61,0,0,1-2.36,1.33Z" transform="translate(0)"/><path class="cls-4" d="M302.43,219.25c-.88.2-1.8.73-2.61.51s-1.49-1.18-2.23-1.81c.74-.63,1.42-1.58,2.23-1.81a4.77,4.77,0,0,1,2.6.55c.39.18.67.83,1,1.26-.33.42-.66.88-1,1.3Z" transform="translate(0)"/><path class="cls-4" d="M312.23,204.69a23.22,23.22,0,0,1,2.38,1.33,1.84,1.84,0,0,1-.07,1.23,2.75,2.75,0,0,1-4.82-.07c-.54-1.21.73-2.47,2.51-2.49Z" transform="translate(0)"/><path class="cls-4" d="M259.73,231.21c-1.45.17-2.88-.31-2.44-2.44s3.64-2,4.73-.13a1.84,1.84,0,0,1,.07,1.23,21.51,21.51,0,0,1-2.36,1.34Z" transform="translate(0)"/><path class="cls-4" d="M408.05,31.63c-.34.8-.69,1.6-1,2.43-.32-.42-1-.93-.91-1.23a14.21,14.21,0,0,1,.91-2.56l1,1.36Z" transform="translate(0)"/><path class="cls-4" d="M252.78,38.41l1,1.35a8,8,0,0,1-2,1.18c-.24.08-.64-.75-1-1.18.63-.45,1.27-.93,1.88-1.35Z" transform="translate(0)"/><path class="cls-4" d="M337.4,38.41l1,1.35a8,8,0,0,1-2,1.18c-.24.08-.63-.75-1-1.18.64-.45,1.27-.93,1.88-1.35Z" transform="translate(0)"/><path class="cls-4" d="M407.43,38.41l1,1.35a8,8,0,0,1-2,1.18c-.24.08-.63-.75-1-1.18.64-.45,1.27-.93,1.88-1.35Z" transform="translate(0)"/><path class="cls-4" d="M300.93,44.11l1-2.46c.32.42,1,.93.91,1.25a14.52,14.52,0,0,1-.91,2.54l-1-1.33Z" transform="translate(0)"/><path class="cls-4" d="M381.79,44.08c-.39.53-.71.93-1,1.36a13.75,13.75,0,0,1-.91-2.54c0-.32.59-.83.91-1.25.35.83.7,1.65,1,2.43Z" transform="translate(0)"/><path class="cls-4" d="M432.24,44.08c.34-.78.69-1.6,1-2.43.32.42,1,.93.91,1.25a13.75,13.75,0,0,1-.91,2.54c-.33-.43-.65-.83-1-1.36Z" transform="translate(0)"/><path class="cls-4" d="M364.28,27.84c-.34.8-.69,1.6-1,2.43-.32-.43-1-.93-.91-1.23a13.94,13.94,0,0,1,.91-2.56l1,1.36Z" transform="translate(0)"/><path class="cls-4" d="M303,74.42c-.39.5-.71.93-1,1.35a14,14,0,0,1-.92-2.53c-.05-.33.59-.83.92-1.26.34.83.7,1.66,1,2.44Z" transform="translate(0)"/><path class="cls-4" d="M428.48,73.34c-.34.77-.69,1.6-1,2.43-.32-.42-1-.93-.91-1.25a14.29,14.29,0,0,1,.91-2.54c.32.43.65.85,1,1.36Z" transform="translate(0)"/><path class="cls-4" d="M488.88,45.44c-.45-.75-1.41-1.88-1.27-2.19,1-2.28,1.86-.72,2.53.53a2.09,2.09,0,0,1,0,1.61c-.22.27-.82,0-1.25,0Z" transform="translate(0)"/><path class="cls-4" d="M492.86,47.65c-.34.43-.82,1.25-.93,1.18a6.74,6.74,0,0,1-1.72-1.73,2.08,2.08,0,0,1,0-1.59,1,1,0,0,1,1.23,0,14.12,14.12,0,0,1,1.41,2.16Z" transform="translate(0)"/><path class="cls-4" d="M245.48,50.59c.4-.51.72-.93,1-1.36a13.24,13.24,0,0,1,.91,2.56c.06.3-.58.8-.91,1.23-.35-.83-.7-1.66-1-2.43Z" transform="translate(0)"/><path class="cls-4" d="M340.32,52.47l-1.88-1.33c.33-.43.72-1.26,1-1.21a8.19,8.19,0,0,1,2,1.21c-.33.4-.65.83-1,1.33Z" transform="translate(0)"/><path class="cls-4" d="M458.5,51.69l1-2.46c.32.43,1,.93.91,1.26a13.92,13.92,0,0,1-.91,2.53l-1-1.33Z" transform="translate(0)"/><path class="cls-4" d="M405.13,54.38c-.33.8-.68,1.61-1,2.43-.32-.42-1-.93-.91-1.25a15.45,15.45,0,0,1,.91-2.54l1,1.36Z" transform="translate(0)"/><path class="cls-4" d="M488.72,53a14.58,14.58,0,0,1,.91,2.54c.05.32-.59.83-.91,1.25a13.43,13.43,0,0,1-.92-2.53c-.05-.33.59-.83.92-1.26Z" transform="translate(0)"/><path class="cls-4" d="M381.79,153c-.34.78-.69,1.61-1,2.44-.32-.43-1-.93-.91-1.26a13.4,13.4,0,0,1,.91-2.53c.33.42.65.82,1,1.35Z" transform="translate(0)"/><path class="cls-4" d="M314.67,157.83l-1,1.36a13.24,13.24,0,0,1-.91-2.56c-.06-.3.58-.81.91-1.23l1,2.43Z" transform="translate(0)"/><path class="cls-4" d="M255.7,143.47c-.61-.43-1.25-.88-1.88-1.36.32-.4.72-1.25,1-1.18a9.37,9.37,0,0,1,2,1.18l-1,1.36Z" transform="translate(0)"/><path class="cls-4" d="M328.23,140.23a13.75,13.75,0,0,1,.91,2.54c.05.32-.59.83-.91,1.25a14.53,14.53,0,0,1-.92-2.53c-.05-.33.59-.83.92-1.26Z" transform="translate(0)"/><path class="cls-4" d="M247.56,145.38c-.34.78-.69,1.61-1,2.43-.32-.42-1-.93-.91-1.25a13.75,13.75,0,0,1,.91-2.54c.33.43.65.83,1,1.36Z" transform="translate(0)"/><path class="cls-4" d="M305,147.81c-.45-.75-1.4-1.88-1.27-2.18,1-2.29,1.86-.73,2.54.53.2.37,0,1.08,0,1.65Z" transform="translate(0)"/><path class="cls-4" d="M322,144.57c.61.43,1.25.88,1.88,1.34-.32.42-.72,1.25-1,1.2a8.48,8.48,0,0,1-2-1.2c.33-.41.65-.83,1-1.34Z" transform="translate(0)"/><path class="cls-4" d="M425.56,146.46l-1,1.35a14.2,14.2,0,0,1-.91-2.53c-.05-.33.59-.83.91-1.26.35.83.7,1.66,1,2.44Z" transform="translate(0)"/><path class="cls-4" d="M484.34,149.7a8.48,8.48,0,0,1-2,1.2c-.24,0-.63-.78-1-1.2a9.12,9.12,0,0,1,2-1.18c.24-.08.64.78,1,1.18Z" transform="translate(0)"/><path class="cls-4" d="M265.07,187.09c-.34.77-.69,1.6-1,2.43-.32-.42-1-.93-.91-1.25a13.75,13.75,0,0,1,.91-2.54c.33.43.65.83,1,1.36Z" transform="translate(0)"/><path class="cls-4" d="M366.32,189.52c-.45-.75-1.4-1.88-1.27-2.18,1-2.29,1.86-.73,2.54.52.2.38,0,1.08,0,1.66Z" transform="translate(0)"/><path class="cls-4" d="M492.67,188.17c-.39.5-.71.93-1,1.35a14,14,0,0,1-.92-2.56c-.05-.3.59-.8.92-1.23.35.83.7,1.63,1,2.44Z" transform="translate(0)"/><path class="cls-4" d="M440.15,192l-1,1.35a13.68,13.68,0,0,1-.91-2.56c-.05-.3.59-.8.91-1.23.35.83.7,1.63,1,2.44Z" transform="translate(0)"/><path class="cls-4" d="M428.9,195.2a7.75,7.75,0,0,1-2,1.18c-.24.07-.64-.76-1-1.18a9.12,9.12,0,0,1,2-1.18c.24-.08.63.78,1,1.18Z" transform="translate(0)"/><path class="cls-4" d="M469.33,195.75l-1,1.36a14,14,0,0,1-.91-2.57c-.05-.3.59-.8.91-1.23l1,2.44Z" transform="translate(0)"/><path class="cls-4" d="M485.8,166.77a13.75,13.75,0,0,1,.91,2.54c.06.33-.59.83-.91,1.25a14.2,14.2,0,0,1-.91-2.53c-.06-.33.59-.83.91-1.26Z" transform="translate(0)"/><path class="cls-4" d="M365.12,173c.34-.78.69-1.61,1-2.44.33.43,1,.93.91,1.23a13.33,13.33,0,0,1-.91,2.57c-.32-.43-.65-.86-1-1.36Z" transform="translate(0)"/><path class="cls-4" d="M274.66,176.79l1-2.43c.33.42,1,.92.91,1.23a13.48,13.48,0,0,1-.91,2.56c-.32-.43-.65-.86-1-1.36Z" transform="translate(0)"/><path class="cls-4" d="M384.71,180.58c-.39.51-.72.93-1,1.36a13.94,13.94,0,0,1-.91-2.56c-.06-.3.59-.81.91-1.23.35.83.7,1.63,1,2.43Z" transform="translate(0)"/><path class="cls-4" d="M338,183.3c-.34.77-.69,1.6-1,2.43-.32-.43-1-.93-.91-1.25a13.75,13.75,0,0,1,.91-2.54c.33.43.65.83,1,1.36Z" transform="translate(0)"/><path class="cls-4" d="M302,87.15a14.2,14.2,0,0,1,.91,2.53c.05.33-.59.83-.91,1.26a14.63,14.63,0,0,1-.92-2.54c-.05-.32.59-.83.92-1.25Z" transform="translate(0)"/><path class="cls-4" d="M370.12,89.58c-.39.5-.72.93-1,1.36a13.8,13.8,0,0,1-.91-2.54c-.06-.32.58-.83.91-1.25.35.83.7,1.65,1,2.43Z" transform="translate(0)"/><path class="cls-4" d="M495.59,89.58c-.39.5-.71.93-1,1.36a14.58,14.58,0,0,1-.91-2.54c-.05-.32.59-.83.91-1.25.35.83.71,1.65,1,2.43Z" transform="translate(0)"/><path class="cls-4" d="M343.24,99.07l1,1.36a9.37,9.37,0,0,1-2,1.18c-.24.08-.64-.78-1-1.18.63-.48,1.27-.93,1.88-1.36Z" transform="translate(0)"/><path class="cls-4" d="M470.17,77.13c.39-.5.71-.93,1-1.36a14.58,14.58,0,0,1,.91,2.54c.05.32-.59.83-.91,1.25-.35-.83-.7-1.65-1-2.43Z" transform="translate(0)"/><path class="cls-4" d="M274.66,82c.34-.78.69-1.61,1-2.44.33.43,1,.93.91,1.26a13.06,13.06,0,0,1-.91,2.54c-.32-.43-.65-.83-1-1.36Z" transform="translate(0)"/><path class="cls-4" d="M262.15,85.79c-.39.53-.71.93-1,1.36a13.75,13.75,0,0,1-.91-2.54c-.05-.33.59-.83.91-1.25.35.82.7,1.65,1,2.43Z" transform="translate(0)"/><path class="cls-4" d="M478.08,85.79c-.39.53-.71.93-1,1.36a14.52,14.52,0,0,1-.91-2.54c-.05-.33.59-.83.92-1.25l1,2.43Z" transform="translate(0)"/><path class="cls-4" d="M414.73,131.29c.34-.78.69-1.61,1-2.43.32.42,1,.92.91,1.25a14.58,14.58,0,0,1-.91,2.54c-.33-.43-.65-.86-1-1.36Z" transform="translate(0)"/><path class="cls-4" d="M264.19,136.44c-.45-.75-1.4-1.88-1.27-2.19,1-2.28,1.86-.72,2.54.53a2,2,0,0,1,0,1.58c-.21.3-.82.08-1.25.08Z" transform="translate(0)"/><path class="cls-4" d="M285.5,134c-.34.78-.69,1.61-1,2.44-.33-.43-1-.93-.91-1.26a13.45,13.45,0,0,1,.91-2.53l1,1.35Z" transform="translate(0)"/><path class="cls-4" d="M352,133.2l1,1.33a8.53,8.53,0,0,1-2,1.21c-.24,0-.63-.78-1-1.21L352,133.2Z" transform="translate(0)"/><path class="cls-4" d="M411,135.08c-.39.5-.72.93-1,1.36a14.58,14.58,0,0,1-.91-2.54c0-.32.59-.83.91-1.25.35.83.7,1.65,1,2.43Z" transform="translate(0)"/><path class="cls-4" d="M386.59,102.31a14.58,14.58,0,0,1,.91,2.54c.05.33-.59.83-.91,1.26a13.8,13.8,0,0,1-.91-2.54c-.06-.33.58-.83.91-1.26Z" transform="translate(0)"/><path class="cls-4" d="M467.25,103.67c.39-.5.72-.93,1-1.36a13.8,13.8,0,0,1,.91,2.54c.06.33-.58.83-.91,1.26-.35-.83-.7-1.66-1-2.44Z" transform="translate(0)"/><path class="cls-4" d="M269.45,106.66c.61.42,1.24.88,1.88,1.33-.33.43-.72,1.25-1,1.2a8.15,8.15,0,0,1-2-1.2l1-1.33Z" transform="translate(0)"/><path class="cls-4" d="M404.25,109.9c-.45-.76-1.4-1.89-1.26-2.19,1-2.28,1.86-.73,2.53.53.21.38,0,1.1,0,1.66Z" transform="translate(0)"/><path class="cls-4" d="M408.23,112.11c-.33.42-.81,1.23-.92,1.15a6.08,6.08,0,0,1-1.72-1.71,2.06,2.06,0,0,1,0-1.58,1,1,0,0,1,1.23,0,13,13,0,0,1,1.4,2.16Z" transform="translate(0)"/><path class="cls-4" d="M280.5,119.92c.34-.78.69-1.61,1-2.44.32.43,1,.93.91,1.26a14.48,14.48,0,0,1-.91,2.53l-1-1.35Z" transform="translate(0)"/><path class="cls-4" d="M314.06,121.82c.39.51.71.93,1,1.34a8.69,8.69,0,0,1-2,1.2c-.24,0-.64-.78-1-1.2.63-.46,1.27-.91,1.88-1.34Z" transform="translate(0)"/><path class="cls-4" d="M335.1,213.6l-1,2.46c-.32-.42-1-.95-.91-1.25a13.75,13.75,0,0,1,.91-2.54l1,1.33Z" transform="translate(0)"/><path class="cls-4" d="M277.16,221.74a7.47,7.47,0,0,1-2,1.18c-.24.07-.63-.75-1-1.18a8.24,8.24,0,0,1,2-1.18c.24-.08.64.75,1,1.18Z" transform="translate(0)"/><path class="cls-4" d="M288.41,221.19c-.33.8-.68,1.63-1,2.46-.33-.43-1-1-.92-1.26a13,13,0,0,1,.92-2.53c.32.4.64.82,1,1.33Z" transform="translate(0)"/><path class="cls-4" d="M350.11,221.74a7.47,7.47,0,0,1-2,1.18c-.24.07-.63-.75-1-1.18a8.24,8.24,0,0,1,2-1.18c.24-.08.64.75,1,1.18Z" transform="translate(0)"/><path class="cls-4" d="M380.33,220.38l1.88,1.36c-.32.43-.72,1.25-1,1.18a7.47,7.47,0,0,1-2-1.18c.33-.43.65-.83,1-1.36Z" transform="translate(0)"/><path class="cls-4" d="M449.74,222.29c.34-.8.69-1.63,1-2.43.33.4,1,.93.92,1.23a14.25,14.25,0,0,1-.92,2.56c-.32-.43-.65-.86-1-1.36Z" transform="translate(0)"/><path class="cls-4" d="M325.73,200.34c-.61-.42-1.25-.9-1.88-1.35.32-.4.72-1.26,1-1.18a9.12,9.12,0,0,1,2,1.18l-1,1.35Z" transform="translate(0)"/><path class="cls-4" d="M290.71,201.45c.39.5.72.9,1,1.33a7.21,7.21,0,0,1-2,1.18c-.24.08-.63-.75-1-1.18l1.88-1.33Z" transform="translate(0)"/><path class="cls-4" d="M362.21,206c.38-.5.71-.93,1-1.33a13.79,13.79,0,0,1,.92,2.54c0,.32-.59.82-.92,1.25-.35-.83-.7-1.66-1-2.46Z" transform="translate(0)"/><path class="cls-4" d="M416.81,206l-1,2.46c-.33-.43-1-.93-.91-1.25a13.06,13.06,0,0,1,.91-2.54c.32.43.65.83,1,1.33Z" transform="translate(0)"/><path class="cls-4" d="M448.9,209.81c-.33.81-.68,1.63-1,2.46-.33-.42-1-.93-.92-1.25a13.79,13.79,0,0,1,.92-2.54c.32.43.64.83,1,1.33Z" transform="translate(0)"/><path class="cls-4" d="M410.35,238.26c-.61-.45-1.24-.9-1.88-1.35.33-.43.72-1.26,1-1.18a8,8,0,0,1,2,1.18l-1,1.35Z" transform="translate(0)"/><path class="cls-4" d="M378.87,240.14l-1,2.47c-.32-.43-1-1-.91-1.26a13.25,13.25,0,0,1,.91-2.54c.33.41.65.83,1,1.33Z" transform="translate(0)"/><path class="cls-4" d="M457.66,241.25c-.39.5-.72.93-1,1.36a14,14,0,0,1-.91-2.57c-.06-.3.59-.82.91-1.23.35.81.7,1.64,1,2.44Z" transform="translate(0)"/><path class="cls-4" d="M311.14,243.13c.39.53.71.93,1,1.36a8,8,0,0,1-2,1.18c-.24.07-.64-.75-1-1.18.63-.45,1.27-.9,1.88-1.36Z" transform="translate(0)"/><path class="cls-4" d="M431.4,245c-.39.5-.72.93-1,1.36a14.25,14.25,0,0,1-.92-2.56c-.05-.31.59-.83.92-1.23.35.8.7,1.63,1,2.43Z" transform="translate(0)"/><path class="cls-4" d="M392.58,227.44c-.45-.75-1.4-1.88-1.27-2.19,1-2.28,1.86-.72,2.54.53a2,2,0,0,1,0,1.58c-.21.28-.82.08-1.25.08Z" transform="translate(0)"/><path class="cls-4" d="M396.56,229.65c-.34.43-.81,1.23-.92,1.15a6.29,6.29,0,0,1-1.72-1.73,2,2,0,0,1,0-1.58,1,1,0,0,1,1.22,0,12.58,12.58,0,0,1,1.41,2.16Z" transform="translate(0)"/><path class="cls-4" d="M310.3,234.47c-.39-.5-.72-.93-1-1.36a8.38,8.38,0,0,1,2-1.18c.24-.07.63.76,1,1.18l-1.88,1.36Z" transform="translate(0)"/><path class="cls-4" d="M336.56,231.76c.61.45,1.25.9,1.88,1.35-.32.43-.72,1.26-1,1.18a8,8,0,0,1-2-1.18c.33-.42.65-.82,1-1.35Z" transform="translate(0)"/><path class="cls-4" d="M347.19,233.11a8,8,0,0,1-1.95,1.18c-.24.08-.64-.75-1-1.18a8.18,8.18,0,0,1,2-1.18c.24-.07.63.76.95,1.18Z" transform="translate(0)"/><path class="cls-4" d="M493.1,233.11a7.36,7.36,0,0,1-2,1.18c-.25.08-.64-.75-1-1.18a8.18,8.18,0,0,1,2-1.18c.24-.07.63.76,1,1.18Z" transform="translate(0)"/><path class="cls-4" d="M57.44,486.57c-.54.9-.94,2.18-1.65,2.59s-2.45.5-2.66,0c-1.63-3.94-3-8.09-4.41-12.2a2.7,2.7,0,0,1,.45-1.54,7.77,7.77,0,0,1,1-1.3c2.43,3.54,4.88,7.08,7.26,10.7.23.35,0,1.18,0,1.78Z" transform="translate(0)"/><path class="cls-4" d="M173.64,461.48c-.34.41-.69,1.18-1,1.16-1.32-.05-3.07.93-3.73-1.23a15.17,15.17,0,0,1-.12-4.92c0-.46.64-1.26.94-1.21.85.08,4,5.3,3.92,6.2Z" transform="translate(0)"/><path class="cls-4" d="M139.16,441.82c-.71.93-1,1.53-1.36,1.73-2.84,1.51-4.53-.62-4.49-5.62,0-2.51-1.68-.48,0-1.73a1.19,1.19,0,0,1,1.32,0c1.55,1.8,3,3.74,4.52,5.62Z" transform="translate(0)"/><path class="cls-4" d="M174.18,273.16c-2.51.2-3.11-1.91-2.88-4.55a10.07,10.07,0,0,1,1.29-2.91,10.4,10.4,0,0,1,1,1,28.85,28.85,0,0,1,2,2.59,18.35,18.35,0,0,1,1.07,2.56l-2.43,1.31Z" transform="translate(0)"/><path class="cls-4" d="M95.39,371.71c2.28.18,3.11,1.36,2.84,4.62-.08,1-.87,1.94-1.34,2.89-.33-.38-.68-.75-1-1.15a22,22,0,0,1-2-2.59,15.12,15.12,0,0,1-1-2.56l2.41-1.21Z" transform="translate(0)"/><path class="cls-4" d="M135.23,391.27c1.46,1.11,1.52,4.85.06,6.26a.89.89,0,0,1-1,.1c-1.49-1.06-1.53-4.82-.07-6.23.22-.23.65-.1,1-.13Z" transform="translate(0)"/><path class="cls-4" d="M151.73,387.06l2,1.7c-.73.66-1.52,1.89-2.2,1.79-1.25-.18-2.42-1.13-3.63-1.79.93-1.5,2.11-2.23,3.83-1.7Z" transform="translate(0)"/><path class="cls-4" d="M36.76,385.3c-.32,1.66-2.68,2.11-4.68.8a2.34,2.34,0,0,1-.88-1.25c-.51-1.74,0-2.26,1.34-1.79s2.52.63,3.75,1.06c.23.07.32.78.47,1.18Z" transform="translate(0)"/><path class="cls-4" d="M19.51,363.2c-.49,1.58-1,3.14-1.46,4.72a22.77,22.77,0,0,1-1.36-4.72c-.08-.88.87-1.91,1.36-2.86l1.46,2.86Z" transform="translate(0)"/><path class="cls-4" d="M63.35,439.94c-1.44.17-2.87-.3-2.44-2.44s3.64-2,4.73-.12a1.84,1.84,0,0,1,.07,1.23,19.9,19.9,0,0,1-2.36,1.33Z" transform="translate(0)"/><path class="cls-4" d="M69.19,413.42c-1.45.15-2.88-.32-2.44-2.46s3.64-2,4.73-.1a1.85,1.85,0,0,1,.07,1.21c-.77.52-1.59.93-2.36,1.35Z" transform="translate(0)"/><path class="cls-4" d="M209.08,403c.07.87-.88,1.9-1.36,2.86-.49-1-1.44-2-1.36-2.86a21.76,21.76,0,0,1,1.36-4.72,22.94,22.94,0,0,1,1.36,4.72Z" transform="translate(0)"/><path class="cls-4" d="M77.62,396.67c-.32,1.66-2.69,2.11-4.69.81a2.41,2.41,0,0,1-.88-1.26c-.51-1.73,0-2.26,1.34-1.78s2.52.63,3.76,1.05c.22.08.31.78.47,1.18Z" transform="translate(0)"/><path class="cls-4" d="M13.66,276.82c.13,1.88-.24,3.74-1.89,3.16s-1.54-4.72-.08-6.12l1-.1c.4,1,.7,2.06,1,3.06Z" transform="translate(0)"/><path class="cls-4" d="M196.51,276.32c-.33,0-.76.1-1-.1-1.47-1.43-1.42-5.2.06-6.25a.85.85,0,0,1,1,.1c1.47,1.4,1.41,5.14-.05,6.25Z" transform="translate(0)"/><path class="cls-4" d="M228.89,288.17c-.68.1-1.47-1.13-2.21-1.76.74-.62,1.53-1.86,2.21-1.78,1.24.18,2.42,1.16,3.63,1.78-1.21.63-2.39,1.59-3.63,1.76Z" transform="translate(0)"/><path class="cls-4" d="M206.34,485.44c-1.45.17-2.88-.33-2.44-2.44s3.64-2,4.72-.12a1.84,1.84,0,0,1,.07,1.23,20.6,20.6,0,0,1-2.35,1.33Z" transform="translate(0)"/><path class="cls-4" d="M68.12,465.9c-.88.2-1.81.73-2.62.51s-1.49-1.19-2.22-1.81C64,464,64.7,463,65.5,462.79a4.75,4.75,0,0,1,2.6.55c.4.18.68.83,1,1.26-.33.42-.66.88-1,1.3Z" transform="translate(0)"/><path class="cls-4" d="M77.92,451.34a23.22,23.22,0,0,1,2.38,1.33,1.84,1.84,0,0,1-.07,1.23,2.74,2.74,0,0,1-4.82-.08c-.54-1.2.73-2.46,2.51-2.48Z" transform="translate(0)"/><path class="cls-4" d="M25.42,477.86c-1.45.17-2.88-.31-2.44-2.44s3.64-2,4.73-.13a1.91,1.91,0,0,1,.07,1.23,23.54,23.54,0,0,1-2.36,1.34Z" transform="translate(0)"/><path class="cls-4" d="M173.74,278.28c-.34.8-.69,1.6-1,2.43-.32-.42-1-.93-.91-1.23a14.21,14.21,0,0,1,.91-2.56c.32.43.65.86,1,1.36Z" transform="translate(0)"/><path class="cls-4" d="M18.47,285.06l1,1.35a8.24,8.24,0,0,1-2,1.18c-.24.08-.64-.75-1-1.18.63-.45,1.27-.93,1.88-1.35Z" transform="translate(0)"/><path class="cls-4" d="M103.09,285.06l1,1.35a8,8,0,0,1-2,1.18c-.24.08-.64-.75-1-1.18.63-.45,1.27-.93,1.88-1.35Z" transform="translate(0)"/><path class="cls-4" d="M173.12,285.06l1,1.35a8,8,0,0,1-2,1.18c-.24.08-.63-.75-1-1.18.64-.45,1.27-.93,1.88-1.35Z" transform="translate(0)"/><path class="cls-4" d="M66.61,290.76l1-2.46c.33.42,1,.93.91,1.25a13.06,13.06,0,0,1-.91,2.54c-.32-.43-.65-.83-1-1.33Z" transform="translate(0)"/><path class="cls-4" d="M147.48,290.73c-.39.53-.72.93-1,1.36a13.06,13.06,0,0,1-.91-2.54c-.06-.32.58-.83.91-1.25.35.83.7,1.65,1,2.43Z" transform="translate(0)"/><path class="cls-4" d="M197.93,290.73l1-2.43c.33.42,1,.93.91,1.25a13.06,13.06,0,0,1-.91,2.54c-.32-.43-.65-.83-1-1.36Z" transform="translate(0)"/><path class="cls-4" d="M130,274.49c-.34.8-.69,1.6-1,2.43-.32-.43-1-.93-.91-1.23a13.94,13.94,0,0,1,.91-2.56c.32.43.65.85,1,1.36Z" transform="translate(0)"/><path class="cls-4" d="M68.69,321.07l-1,1.35a13.92,13.92,0,0,1-.91-2.53c0-.33.59-.83.91-1.26.35.83.7,1.66,1,2.44Z" transform="translate(0)"/><path class="cls-4" d="M194.16,320l-1,2.43c-.33-.43-1-.93-.92-1.25a14.34,14.34,0,0,1,.92-2.54l1,1.36Z" transform="translate(0)"/><path class="cls-4" d="M254.56,292.09c-.45-.75-1.4-1.89-1.26-2.19,1-2.28,1.86-.72,2.53.53a2.13,2.13,0,0,1,0,1.61c-.22.27-.82,0-1.26,0Z" transform="translate(0)"/><path class="cls-4" d="M258.54,294.3c-.33.42-.81,1.25-.92,1.18a6.74,6.74,0,0,1-1.72-1.73,2.08,2.08,0,0,1,0-1.59,1,1,0,0,1,1.23,0,13.37,13.37,0,0,1,1.4,2.16Z" transform="translate(0)"/><path class="cls-4" d="M11.17,297.24c.39-.51.72-.93,1-1.36a13.94,13.94,0,0,1,.91,2.56c.06.3-.59.8-.91,1.23-.35-.83-.7-1.66-1-2.43Z" transform="translate(0)"/><path class="cls-4" d="M106,299.12l-1.88-1.33c.32-.43.72-1.26,1-1.21a8.39,8.39,0,0,1,2,1.21c-.33.4-.65.83-1,1.33Z" transform="translate(0)"/><path class="cls-4" d="M224.19,298.34c.34-.8.69-1.63,1-2.46.33.43,1,.93.92,1.26a13.25,13.25,0,0,1-.92,2.53c-.32-.43-.64-.83-1-1.33Z" transform="translate(0)"/><path class="cls-4" d="M170.82,301c-.34.8-.69,1.6-1,2.43-.32-.42-1-.93-.91-1.25a14.58,14.58,0,0,1,.91-2.54l1,1.36Z" transform="translate(0)"/><path class="cls-4" d="M254.4,299.67a13.85,13.85,0,0,1,.92,2.54c.05.32-.59.83-.92,1.25a14.42,14.42,0,0,1-.91-2.53c-.05-.33.59-.83.91-1.26Z" transform="translate(0)"/><path class="cls-4" d="M147.48,399.61c-.34.78-.69,1.61-1,2.44-.33-.43-1-.93-.91-1.26a12.74,12.74,0,0,1,.91-2.53c.32.42.65.82,1,1.35Z" transform="translate(0)"/><path class="cls-4" d="M80.36,404.48l-1,1.36a14,14,0,0,1-.92-2.56c0-.3.59-.81.92-1.23.34.83.69,1.65,1,2.43Z" transform="translate(0)"/><path class="cls-4" d="M21.39,390.12c-.62-.43-1.25-.88-1.88-1.36.32-.4.71-1.25.95-1.18a8.88,8.88,0,0,1,2,1.18c-.32.43-.64.86-1,1.36Z" transform="translate(0)"/><path class="cls-4" d="M93.91,386.88a13.79,13.79,0,0,1,.92,2.54c0,.32-.59.83-.92,1.25a15.34,15.34,0,0,1-.91-2.53c0-.33.59-.83.91-1.26Z" transform="translate(0)"/><path class="cls-4" d="M13.25,392c-.34.78-.69,1.61-1,2.43-.32-.42-1-.93-.91-1.25a13.75,13.75,0,0,1,.91-2.54c.32.43.65.83,1,1.36Z" transform="translate(0)"/><path class="cls-4" d="M70.73,394.46c-.45-.75-1.41-1.88-1.27-2.18,1-2.29,1.86-.73,2.54.53.2.37,0,1.08,0,1.65Z" transform="translate(0)"/><path class="cls-4" d="M87.66,391.22l1.88,1.34c-.33.42-.72,1.25-1,1.2a8.48,8.48,0,0,1-2-1.2l1-1.34Z" transform="translate(0)"/><path class="cls-4" d="M191.25,393.11l-1,1.35a13.45,13.45,0,0,1-.91-2.53c-.06-.33.58-.83.91-1.26.35.83.7,1.66,1,2.44Z" transform="translate(0)"/><path class="cls-4" d="M250,396.35a8.48,8.48,0,0,1-2,1.2c-.24.05-.64-.78-1-1.2a9.12,9.12,0,0,1,2-1.18c.24-.08.63.78,1,1.18Z" transform="translate(0)"/><path class="cls-4" d="M30.76,433.74c-.34.77-.69,1.6-1,2.43-.33-.42-1-.93-.91-1.25a13.06,13.06,0,0,1,.91-2.54c.32.43.65.83,1,1.36Z" transform="translate(0)"/><path class="cls-4" d="M132,436.17c-.45-.75-1.41-1.88-1.27-2.18,1-2.29,1.86-.73,2.54.52.2.38,0,1.08,0,1.66Z" transform="translate(0)"/><path class="cls-4" d="M258.36,434.82l-1,1.35a13.94,13.94,0,0,1-.91-2.56c-.05-.3.59-.8.91-1.23.35.83.7,1.63,1,2.44Z" transform="translate(0)"/><path class="cls-4" d="M205.84,438.61l-1,1.35a13.68,13.68,0,0,1-.91-2.56c-.06-.3.59-.8.91-1.23.35.83.7,1.63,1,2.44Z" transform="translate(0)"/><path class="cls-4" d="M194.59,441.85a7.92,7.92,0,0,1-2,1.18c-.24.07-.64-.76-1-1.18a9.12,9.12,0,0,1,2-1.18c.24-.08.63.78,1,1.18Z" transform="translate(0)"/><path class="cls-4" d="M235,442.4c-.39.5-.72.93-1,1.36a14,14,0,0,1-.91-2.57c-.06-.3.59-.8.91-1.23l1,2.44Z" transform="translate(0)"/><path class="cls-4" d="M251.49,413.42a13.75,13.75,0,0,1,.91,2.54c0,.32-.59.83-.91,1.25a14.24,14.24,0,0,1-.92-2.53c0-.33.59-.83.92-1.26Z" transform="translate(0)"/><path class="cls-4" d="M130.81,419.65c.34-.78.69-1.61,1-2.44.32.43,1,.93.91,1.23a14,14,0,0,1-.91,2.57l-1-1.36Z" transform="translate(0)"/><path class="cls-4" d="M40.35,423.44l1-2.43c.32.42,1,.92.91,1.23a14.21,14.21,0,0,1-.91,2.56c-.32-.43-.65-.86-1-1.36Z" transform="translate(0)"/><path class="cls-4" d="M150.4,427.23c-.39.5-.72.93-1,1.36a14.25,14.25,0,0,1-.92-2.56c-.05-.3.59-.81.92-1.23.35.83.7,1.63,1,2.43Z" transform="translate(0)"/><path class="cls-4" d="M103.71,429.94c-.34.78-.69,1.61-1,2.44-.32-.43-1-.93-.91-1.26a13.92,13.92,0,0,1,.91-2.53c.32.43.65.83,1,1.35Z" transform="translate(0)"/><path class="cls-4" d="M67.65,333.8a13.45,13.45,0,0,1,.91,2.53c.06.33-.58.83-.91,1.26a14.58,14.58,0,0,1-.91-2.54c0-.32.59-.83.91-1.25Z" transform="translate(0)"/><path class="cls-4" d="M135.8,336.23l-1,1.36a14.63,14.63,0,0,1-.92-2.54c0-.32.59-.83.92-1.25l1,2.43Z" transform="translate(0)"/><path class="cls-4" d="M261.28,336.23l-1,1.36a14.58,14.58,0,0,1-.91-2.54c-.06-.32.59-.83.91-1.25.35.83.7,1.65,1,2.43Z" transform="translate(0)"/><path class="cls-4" d="M108.93,345.72l1,1.36a8.88,8.88,0,0,1-2,1.18c-.24.08-.63-.78-1-1.18.63-.48,1.26-.93,1.88-1.36Z" transform="translate(0)"/><path class="cls-4" d="M235.86,323.78l1-1.36a14.58,14.58,0,0,1,.91,2.54c.05.32-.59.83-.91,1.25-.35-.83-.7-1.65-1-2.43Z" transform="translate(0)"/><path class="cls-4" d="M40.35,328.65c.34-.78.69-1.61,1-2.44.32.43,1,.93.91,1.26a13.75,13.75,0,0,1-.91,2.54c-.32-.43-.65-.83-1-1.36Z" transform="translate(0)"/><path class="cls-4" d="M27.84,332.44c-.39.53-.72.93-1,1.36a13.75,13.75,0,0,1-.91-2.54c-.06-.33.59-.83.91-1.25.35.82.7,1.65,1,2.43Z" transform="translate(0)"/><path class="cls-4" d="M243.77,332.44c-.39.53-.71.93-1,1.36a13.75,13.75,0,0,1-.91-2.54c0-.33.59-.83.91-1.25.35.82.7,1.65,1,2.43Z" transform="translate(0)"/><path class="cls-4" d="M180.42,377.94l1-2.44c.32.43,1,.93.91,1.26a15.45,15.45,0,0,1-.91,2.54l-1-1.36Z" transform="translate(0)"/><path class="cls-4" d="M29.88,383.09c-.45-.75-1.41-1.88-1.27-2.19,1-2.28,1.86-.72,2.54.53a2,2,0,0,1,0,1.58c-.22.3-.82.08-1.25.08Z" transform="translate(0)"/><path class="cls-4" d="M51.18,380.65c-.34.78-.69,1.61-1,2.44-.33-.43-1-.93-.92-1.26a13.5,13.5,0,0,1,.92-2.53c.32.42.64.85,1,1.35Z" transform="translate(0)"/><path class="cls-4" d="M117.68,379.85c.39.5.71.93,1,1.33a8.53,8.53,0,0,1-2,1.21c-.24.05-.64-.78-1-1.21l1.88-1.33Z" transform="translate(0)"/><path class="cls-4" d="M176.66,381.73c-.39.5-.72.93-1,1.36a14.58,14.58,0,0,1-.91-2.54c-.06-.32.59-.83.91-1.25.35.83.7,1.65,1,2.43Z" transform="translate(0)"/><path class="cls-4" d="M152.27,349a13.85,13.85,0,0,1,.92,2.54c.05.33-.59.83-.92,1.26a15.45,15.45,0,0,1-.91-2.54c-.05-.33.59-.83.91-1.26Z" transform="translate(0)"/><path class="cls-4" d="M232.94,350.32c.39-.5.72-.93,1-1.36a14.58,14.58,0,0,1,.91,2.54c.05.33-.59.83-.91,1.26-.35-.83-.7-1.66-1-2.44Z" transform="translate(0)"/><path class="cls-4" d="M35.13,353.31c.62.42,1.25.88,1.88,1.33-.32.43-.72,1.25-1,1.2a8.09,8.09,0,0,1-1.95-1.2c.32-.4.64-.83,1-1.33Z" transform="translate(0)"/><path class="cls-4" d="M169.94,356.55c-.45-.76-1.4-1.89-1.27-2.19,1-2.28,1.86-.73,2.54.53.21.38,0,1.1,0,1.66Z" transform="translate(0)"/><path class="cls-4" d="M173.92,358.76c-.34.42-.81,1.23-.92,1.15a6.21,6.21,0,0,1-1.72-1.71,2,2,0,0,1,0-1.58,1,1,0,0,1,1.22,0,13,13,0,0,1,1.41,2.16Z" transform="translate(0)"/><path class="cls-4" d="M46.19,366.57c.34-.78.69-1.61,1-2.44.32.43,1,.93.91,1.26a14.48,14.48,0,0,1-.91,2.53l-1-1.35Z" transform="translate(0)"/><path class="cls-4" d="M79.75,368.47l1,1.34a8.27,8.27,0,0,1-2,1.2c-.24.05-.63-.78-.95-1.2.63-.46,1.26-.91,1.88-1.34Z" transform="translate(0)"/><path class="cls-4" d="M100.79,460.25l-1,2.46c-.32-.42-1-.95-.91-1.25a13.75,13.75,0,0,1,.91-2.54c.32.43.65.83,1,1.33Z" transform="translate(0)"/><path class="cls-4" d="M42.85,468.39a7.47,7.47,0,0,1-2,1.18c-.24.07-.63-.75-1-1.18a8,8,0,0,1,2-1.18c.24-.08.64.75,1,1.18Z" transform="translate(0)"/><path class="cls-4" d="M54.1,467.84l-1,2.46c-.32-.43-1-1-.91-1.26a12.92,12.92,0,0,1,.91-2.53c.33.4.65.82,1,1.33Z" transform="translate(0)"/><path class="cls-4" d="M115.8,468.39a7.47,7.47,0,0,1-2,1.18c-.24.07-.63-.75-1-1.18a8,8,0,0,1,2-1.18c.24-.08.64.75,1,1.18Z" transform="translate(0)"/><path class="cls-4" d="M146,467c.61.45,1.24.91,1.88,1.36-.33.43-.72,1.25-1,1.18a7.47,7.47,0,0,1-2-1.18c.32-.43.65-.83,1-1.36Z" transform="translate(0)"/><path class="cls-4" d="M215.43,468.94c.34-.8.69-1.63,1-2.43.33.4,1,.92.91,1.23a13.48,13.48,0,0,1-.91,2.56c-.32-.43-.65-.86-1-1.36Z" transform="translate(0)"/><path class="cls-4" d="M91.42,447c-.61-.42-1.25-.9-1.88-1.35.32-.4.72-1.26,1-1.18a9.37,9.37,0,0,1,2,1.18l-1,1.35Z" transform="translate(0)"/><path class="cls-4" d="M56.4,448.1c.39.5.72.9,1,1.33a7.21,7.21,0,0,1-2,1.18c-.24.08-.63-.75-1-1.18l1.88-1.33Z" transform="translate(0)"/><path class="cls-4" d="M127.89,452.67l1-1.33a13.92,13.92,0,0,1,.91,2.53c.06.33-.59.83-.91,1.26l-1-2.46Z" transform="translate(0)"/><path class="cls-4" d="M182.49,452.67c-.33.8-.69,1.63-1,2.46-.33-.43-1-.93-.92-1.26a14,14,0,0,1,.92-2.53c.32.43.64.83,1,1.33Z" transform="translate(0)"/><path class="cls-4" d="M214.59,456.46l-1,2.46c-.32-.42-1-.93-.91-1.25a13.75,13.75,0,0,1,.91-2.54l1,1.33Z" transform="translate(0)"/><path class="cls-4" d="M176,484.91c-.61-.45-1.25-.9-1.88-1.35.32-.43.72-1.26,1-1.18a8,8,0,0,1,2,1.18l-1,1.35Z" transform="translate(0)"/><path class="cls-4" d="M144.56,486.79l-1,2.47c-.32-.43-1-1-.91-1.26a13.25,13.25,0,0,1,.91-2.54l1,1.33Z" transform="translate(0)"/><path class="cls-4" d="M223.34,487.9l-1,1.36a14.07,14.07,0,0,1-.92-2.57c0-.3.59-.82.92-1.23.35.81.7,1.64,1,2.44Z" transform="translate(0)"/><path class="cls-4" d="M76.83,489.78c.39.53.71.93,1,1.36a8.24,8.24,0,0,1-2,1.18c-.24.07-.64-.75-1-1.18.63-.45,1.27-.9,1.88-1.36Z" transform="translate(0)"/><path class="cls-4" d="M197.08,491.69l-1,1.36a15,15,0,0,1-.91-2.56c0-.31.59-.83.91-1.23.36.8.71,1.63,1,2.43Z" transform="translate(0)"/><path class="cls-4" d="M158.27,474.09c-.45-.75-1.4-1.88-1.27-2.19,1-2.28,1.86-.72,2.54.53a2.05,2.05,0,0,1,0,1.58c-.21.28-.82.08-1.25.08Z" transform="translate(0)"/><path class="cls-4" d="M162.25,476.3c-.34.43-.82,1.23-.92,1.15a6,6,0,0,1-1.72-1.73,2,2,0,0,1,0-1.58,1,1,0,0,1,1.22,0,12.58,12.58,0,0,1,1.41,2.16Z" transform="translate(0)"/><path class="cls-4" d="M76,481.12c-.39-.5-.72-.93-1-1.36a8.38,8.38,0,0,1,2-1.18c.24-.07.63.76,1,1.18L76,481.12Z" transform="translate(0)"/><path class="cls-4" d="M102.25,478.41c.61.45,1.24.9,1.88,1.35-.33.43-.72,1.26-1,1.18a8,8,0,0,1-2-1.18c.32-.42.65-.82,1-1.35Z" transform="translate(0)"/><path class="cls-4" d="M112.88,479.76a8,8,0,0,1-2,1.18c-.24.08-.63-.75-1-1.18a8.59,8.59,0,0,1,2-1.18c.24-.07.64.76,1,1.18Z" transform="translate(0)"/><path class="cls-4" d="M258.78,479.76a7.21,7.21,0,0,1-2,1.18c-.24.08-.63-.75-1-1.18a8.59,8.59,0,0,1,2-1.18c.24-.07.64.76,1,1.18Z" transform="translate(0)"/><path class="cls-4" d="M291.75,486.57c-.53.9-.94,2.18-1.64,2.59s-2.46.5-2.67,0c-1.63-3.94-3-8.09-4.41-12.2-.12-.38.22-1.08.45-1.54a9,9,0,0,1,1-1.3c2.43,3.54,4.88,7.08,7.26,10.7.23.35,0,1.18,0,1.78Z" transform="translate(0)"/><path class="cls-4" d="M408,461.48c-.34.41-.69,1.18-1,1.16-1.31-.05-3.07.93-3.73-1.23a14.91,14.91,0,0,1-.11-4.92c0-.46.63-1.26.94-1.21.84.08,4,5.3,3.91,6.2Z" transform="translate(0)"/><path class="cls-4" d="M373.47,441.82c-.71.93-1,1.53-1.36,1.73-2.83,1.51-4.53-.62-4.49-5.62,0-2.51-1.68-.48,0-1.73a1.18,1.18,0,0,1,1.31,0c1.56,1.8,3,3.74,4.52,5.62Z" transform="translate(0)"/><path class="cls-4" d="M408.49,273.16c-2.51.2-3.1-1.91-2.88-4.55a10.07,10.07,0,0,1,1.29-2.91,10.4,10.4,0,0,1,1,1,29,29,0,0,1,2,2.59,19.61,19.61,0,0,1,1.06,2.56l-2.43,1.31Z" transform="translate(0)"/><path class="cls-4" d="M329.7,371.71c2.29.18,3.11,1.36,2.84,4.62-.08,1-.87,1.94-1.34,2.89-.33-.38-.67-.75-1-1.15a22,22,0,0,1-2-2.59,15.12,15.12,0,0,1-1-2.56l2.41-1.21Z" transform="translate(0)"/><path class="cls-4" d="M369.54,391.27c1.46,1.11,1.52,4.85.06,6.26a.89.89,0,0,1-1,.1c-1.49-1.06-1.53-4.82-.07-6.23.23-.23.65-.1,1-.13Z" transform="translate(0)"/><path class="cls-4" d="M386,387.06l2,1.7c-.74.66-1.53,1.89-2.21,1.79-1.24-.18-2.42-1.13-3.63-1.79.94-1.5,2.11-2.23,3.83-1.7Z" transform="translate(0)"/><path class="cls-4" d="M271.08,385.3c-.32,1.66-2.69,2.11-4.69.8a2.34,2.34,0,0,1-.88-1.25c-.51-1.74,0-2.26,1.34-1.79s2.52.63,3.75,1.06c.23.07.32.78.48,1.18Z" transform="translate(0)"/><path class="cls-4" d="M253.82,363.2c-.49,1.58-1,3.14-1.46,4.72A23.4,23.4,0,0,1,251,363.2c-.07-.88.87-1.91,1.36-2.86l1.46,2.86Z" transform="translate(0)"/><path class="cls-4" d="M297.67,439.94c-1.45.17-2.88-.3-2.44-2.44s3.64-2,4.72-.12a1.84,1.84,0,0,1,.07,1.23,20.6,20.6,0,0,1-2.35,1.33Z" transform="translate(0)"/><path class="cls-4" d="M303.5,413.42c-1.45.15-2.88-.32-2.44-2.46s3.64-2,4.73-.1a1.78,1.78,0,0,1,.07,1.21,25.49,25.49,0,0,1-2.36,1.35Z" transform="translate(0)"/><path class="cls-4" d="M443.39,403c.07.87-.87,1.9-1.36,2.86-.49-1-1.43-2-1.36-2.86a22.33,22.33,0,0,1,1.36-4.72,22.33,22.33,0,0,1,1.36,4.72Z" transform="translate(0)"/><path class="cls-4" d="M311.93,396.67c-.32,1.66-2.69,2.11-4.69.81a2.41,2.41,0,0,1-.88-1.26c-.51-1.73,0-2.26,1.35-1.78s2.51.63,3.75,1.05c.22.08.31.78.47,1.18Z" transform="translate(0)"/><path class="cls-4" d="M248,276.82c.13,1.88-.24,3.74-1.88,3.16s-1.55-4.72-.09-6.12l.95-.1c.41,1,.7,2.06,1,3.06Z" transform="translate(0)"/><path class="cls-4" d="M430.82,276.32c-.33,0-.76.1-1-.1-1.46-1.43-1.42-5.2.07-6.25a.85.85,0,0,1,1,.1c1.46,1.4,1.4,5.14-.06,6.25Z" transform="translate(0)"/><path class="cls-4" d="M463.2,288.17c-.68.1-1.47-1.13-2.2-1.76.73-.62,1.52-1.86,2.2-1.78,1.25.18,2.43,1.16,3.63,1.78-1.2.63-2.38,1.59-3.63,1.76Z" transform="translate(0)"/><path class="cls-4" d="M440.65,485.44c-1.45.17-2.88-.33-2.44-2.44s3.64-2,4.72-.12a1.86,1.86,0,0,1,.08,1.23,21.61,21.61,0,0,1-2.36,1.33Z" transform="translate(0)"/><path class="cls-4" d="M302.43,465.9c-.88.2-1.8.73-2.61.51s-1.49-1.19-2.23-1.81c.74-.63,1.42-1.58,2.23-1.81a4.77,4.77,0,0,1,2.6.55c.39.18.67.83,1,1.26-.33.42-.66.88-1,1.3Z" transform="translate(0)"/><path class="cls-4" d="M312.23,451.34a23.22,23.22,0,0,1,2.38,1.33,1.84,1.84,0,0,1-.07,1.23,2.74,2.74,0,0,1-4.82-.08c-.54-1.2.73-2.46,2.51-2.48Z" transform="translate(0)"/><path class="cls-4" d="M259.73,477.86c-1.45.17-2.88-.31-2.44-2.44s3.64-2,4.73-.13a1.84,1.84,0,0,1,.07,1.23,21.51,21.51,0,0,1-2.36,1.34Z" transform="translate(0)"/><path class="cls-4" d="M408.05,278.28c-.34.8-.69,1.6-1,2.43-.32-.42-1-.93-.91-1.23a14.21,14.21,0,0,1,.91-2.56l1,1.36Z" transform="translate(0)"/><path class="cls-4" d="M252.78,285.06l1,1.35a8,8,0,0,1-2,1.18c-.24.08-.64-.75-1-1.18.63-.45,1.27-.93,1.88-1.35Z" transform="translate(0)"/><path class="cls-4" d="M337.4,285.06l1,1.35a8,8,0,0,1-2,1.18c-.24.08-.63-.75-1-1.18.64-.45,1.27-.93,1.88-1.35Z" transform="translate(0)"/><path class="cls-4" d="M407.43,285.06l1,1.35a8,8,0,0,1-2,1.18c-.24.08-.63-.75-1-1.18.64-.45,1.27-.93,1.88-1.35Z" transform="translate(0)"/><path class="cls-4" d="M300.93,290.76l1-2.46c.32.42,1,.93.91,1.25a14.52,14.52,0,0,1-.91,2.54l-1-1.33Z" transform="translate(0)"/><path class="cls-4" d="M381.79,290.73c-.39.53-.71.93-1,1.36a13.75,13.75,0,0,1-.91-2.54c0-.32.59-.83.91-1.25.35.83.7,1.65,1,2.43Z" transform="translate(0)"/><path class="cls-4" d="M432.24,290.73c.34-.78.69-1.6,1-2.43.32.42,1,.93.91,1.25a13.75,13.75,0,0,1-.91,2.54c-.33-.43-.65-.83-1-1.36Z" transform="translate(0)"/><path class="cls-4" d="M364.28,274.49c-.34.8-.69,1.6-1,2.43-.32-.43-1-.93-.91-1.23a13.94,13.94,0,0,1,.91-2.56l1,1.36Z" transform="translate(0)"/><path class="cls-4" d="M303,321.07c-.39.5-.71.92-1,1.35a14,14,0,0,1-.92-2.53c-.05-.33.59-.83.92-1.26.34.83.7,1.66,1,2.44Z" transform="translate(0)"/><path class="cls-4" d="M428.48,320c-.34.77-.69,1.6-1,2.43-.32-.43-1-.93-.91-1.25a14.29,14.29,0,0,1,.91-2.54c.32.43.65.85,1,1.36Z" transform="translate(0)"/><path class="cls-4" d="M488.88,292.09c-.45-.75-1.41-1.89-1.27-2.19,1-2.28,1.86-.72,2.53.53a2.09,2.09,0,0,1,0,1.61c-.22.27-.82,0-1.25,0Z" transform="translate(0)"/><path class="cls-4" d="M492.86,294.3c-.34.42-.82,1.25-.93,1.18a6.74,6.74,0,0,1-1.72-1.73,2.08,2.08,0,0,1,0-1.59,1,1,0,0,1,1.23,0,14.12,14.12,0,0,1,1.41,2.16Z" transform="translate(0)"/><path class="cls-4" d="M245.48,297.24c.4-.51.72-.93,1-1.36a13.24,13.24,0,0,1,.91,2.56c.06.3-.58.8-.91,1.23-.35-.83-.7-1.66-1-2.43Z" transform="translate(0)"/><path class="cls-4" d="M340.32,299.12l-1.88-1.33c.33-.43.72-1.26,1-1.21a8.19,8.19,0,0,1,2,1.21c-.33.4-.65.83-1,1.33Z" transform="translate(0)"/><path class="cls-4" d="M458.5,298.34l1-2.46c.32.43,1,.93.91,1.26a13.92,13.92,0,0,1-.91,2.53l-1-1.33Z" transform="translate(0)"/><path class="cls-4" d="M405.13,301c-.33.8-.68,1.6-1,2.43-.32-.42-1-.93-.91-1.25a15.45,15.45,0,0,1,.91-2.54l1,1.36Z" transform="translate(0)"/><path class="cls-4" d="M488.72,299.67a14.58,14.58,0,0,1,.91,2.54c.05.32-.59.83-.91,1.25a13.69,13.69,0,0,1-.92-2.53c-.05-.33.59-.83.92-1.26Z" transform="translate(0)"/><path class="cls-4" d="M381.79,399.61c-.34.78-.69,1.61-1,2.44-.32-.43-1-.93-.91-1.26a13.4,13.4,0,0,1,.91-2.53c.33.42.65.82,1,1.35Z" transform="translate(0)"/><path class="cls-4" d="M314.67,404.48l-1,1.36a13.24,13.24,0,0,1-.91-2.56c-.06-.3.58-.81.91-1.23l1,2.43Z" transform="translate(0)"/><path class="cls-4" d="M255.7,390.12c-.61-.43-1.25-.88-1.88-1.36.32-.4.72-1.25,1-1.18a9.37,9.37,0,0,1,2,1.18l-1,1.36Z" transform="translate(0)"/><path class="cls-4" d="M328.23,386.88a13.75,13.75,0,0,1,.91,2.54c.05.32-.59.83-.91,1.25a14.53,14.53,0,0,1-.92-2.53c-.05-.33.59-.83.92-1.26Z" transform="translate(0)"/><path class="cls-4" d="M247.56,392c-.34.78-.69,1.61-1,2.43-.32-.42-1-.93-.91-1.25a13.75,13.75,0,0,1,.91-2.54c.33.43.65.83,1,1.36Z" transform="translate(0)"/><path class="cls-4" d="M305,394.46c-.45-.75-1.4-1.88-1.27-2.18,1-2.29,1.86-.73,2.54.53.2.37,0,1.08,0,1.65Z" transform="translate(0)"/><path class="cls-4" d="M322,391.22c.61.43,1.25.88,1.88,1.34-.32.42-.72,1.25-1,1.2a8.48,8.48,0,0,1-2-1.2c.33-.41.65-.83,1-1.34Z" transform="translate(0)"/><path class="cls-4" d="M425.56,393.11l-1,1.35a14.2,14.2,0,0,1-.91-2.53c-.05-.33.59-.83.91-1.26.35.83.7,1.66,1,2.44Z" transform="translate(0)"/><path class="cls-4" d="M484.34,396.35a8.48,8.48,0,0,1-2,1.2c-.24.05-.63-.78-1-1.2a9.12,9.12,0,0,1,2-1.18c.24-.08.64.78,1,1.18Z" transform="translate(0)"/><path class="cls-4" d="M265.07,433.74c-.34.77-.69,1.6-1,2.43-.32-.42-1-.93-.91-1.25a13.75,13.75,0,0,1,.91-2.54c.33.43.65.83,1,1.36Z" transform="translate(0)"/><path class="cls-4" d="M366.32,436.17c-.45-.75-1.4-1.88-1.27-2.18,1-2.29,1.86-.73,2.54.52.2.38,0,1.08,0,1.66Z" transform="translate(0)"/><path class="cls-4" d="M492.67,434.82c-.39.5-.71.93-1,1.35a14,14,0,0,1-.92-2.56c-.05-.3.59-.8.92-1.23.35.83.7,1.63,1,2.44Z" transform="translate(0)"/><path class="cls-4" d="M440.15,438.61l-1,1.35a13.68,13.68,0,0,1-.91-2.56c-.05-.3.59-.8.91-1.23.35.83.7,1.63,1,2.44Z" transform="translate(0)"/><path class="cls-4" d="M428.9,441.85a7.75,7.75,0,0,1-2,1.18c-.24.07-.64-.76-1-1.18a9.12,9.12,0,0,1,2-1.18c.24-.08.63.78,1,1.18Z" transform="translate(0)"/><path class="cls-4" d="M469.33,442.4l-1,1.36a14,14,0,0,1-.91-2.57c-.05-.3.59-.8.91-1.23l1,2.44Z" transform="translate(0)"/><path class="cls-4" d="M485.8,413.42a13.75,13.75,0,0,1,.91,2.54c.06.32-.59.83-.91,1.25a14.2,14.2,0,0,1-.91-2.53c-.06-.33.59-.83.91-1.26Z" transform="translate(0)"/><path class="cls-4" d="M365.12,419.65c.34-.78.69-1.61,1-2.44.33.43,1,.93.91,1.23a13.33,13.33,0,0,1-.91,2.57c-.32-.43-.65-.86-1-1.36Z" transform="translate(0)"/><path class="cls-4" d="M274.66,423.44l1-2.43c.33.42,1,.92.91,1.23a13.48,13.48,0,0,1-.91,2.56c-.32-.43-.65-.86-1-1.36Z" transform="translate(0)"/><path class="cls-4" d="M384.71,427.23c-.39.5-.72.93-1,1.36a14.21,14.21,0,0,1-.91-2.56c-.06-.3.59-.81.91-1.23.35.83.7,1.63,1,2.43Z" transform="translate(0)"/><path class="cls-4" d="M338,429.94c-.34.78-.69,1.61-1,2.44-.32-.43-1-.93-.91-1.26a13.92,13.92,0,0,1,.91-2.53c.33.43.65.83,1,1.35Z" transform="translate(0)"/><path class="cls-4" d="M302,333.8a14.2,14.2,0,0,1,.91,2.53c.05.33-.59.83-.91,1.26a14.63,14.63,0,0,1-.92-2.54c-.05-.32.59-.83.92-1.25Z" transform="translate(0)"/><path class="cls-4" d="M370.12,336.23c-.39.5-.72.93-1,1.36a13.8,13.8,0,0,1-.91-2.54c-.06-.32.58-.83.91-1.25.35.83.7,1.65,1,2.43Z" transform="translate(0)"/><path class="cls-4" d="M495.59,336.23l-1,1.36a14.58,14.58,0,0,1-.91-2.54c-.05-.32.59-.83.91-1.25.35.83.71,1.65,1,2.43Z" transform="translate(0)"/><path class="cls-4" d="M343.24,345.72l1,1.36a9.37,9.37,0,0,1-2,1.18c-.24.08-.64-.78-1-1.18.63-.48,1.27-.93,1.88-1.36Z" transform="translate(0)"/><path class="cls-4" d="M470.17,323.78l1-1.36a14.58,14.58,0,0,1,.91,2.54c.05.32-.59.83-.91,1.25-.35-.83-.7-1.65-1-2.43Z" transform="translate(0)"/><path class="cls-4" d="M274.66,328.65c.34-.78.69-1.61,1-2.44.33.43,1,.93.91,1.26a13.06,13.06,0,0,1-.91,2.54c-.32-.43-.65-.83-1-1.36Z" transform="translate(0)"/><path class="cls-4" d="M262.15,332.44c-.39.53-.71.93-1,1.36a13.75,13.75,0,0,1-.91-2.54c-.05-.33.59-.83.91-1.25.35.82.7,1.65,1,2.43Z" transform="translate(0)"/><path class="cls-4" d="M478.08,332.44c-.39.53-.71.93-1,1.36a14.52,14.52,0,0,1-.91-2.54c-.05-.33.59-.83.92-1.25l1,2.43Z" transform="translate(0)"/><path class="cls-4" d="M414.73,377.94c.34-.78.69-1.61,1-2.44.32.43,1,.93.91,1.26a14.58,14.58,0,0,1-.91,2.54l-1-1.36Z" transform="translate(0)"/><path class="cls-4" d="M264.19,383.09c-.45-.75-1.4-1.88-1.27-2.19,1-2.28,1.86-.72,2.54.53a2,2,0,0,1,0,1.58c-.21.3-.82.08-1.25.08Z" transform="translate(0)"/><path class="cls-4" d="M285.5,380.65c-.34.78-.69,1.61-1,2.44-.33-.43-1-.93-.91-1.26a13.45,13.45,0,0,1,.91-2.53l1,1.35Z" transform="translate(0)"/><path class="cls-4" d="M352,379.85l1,1.33a8.53,8.53,0,0,1-2,1.21c-.24.05-.63-.78-1-1.21l1.88-1.33Z" transform="translate(0)"/><path class="cls-4" d="M411,381.73c-.39.5-.72.93-1,1.36a14.58,14.58,0,0,1-.91-2.54c0-.32.59-.83.91-1.25.35.83.7,1.65,1,2.43Z" transform="translate(0)"/><path class="cls-4" d="M386.59,349a14.58,14.58,0,0,1,.91,2.54c.05.33-.59.83-.91,1.26a13.8,13.8,0,0,1-.91-2.54c-.06-.33.58-.83.91-1.26Z" transform="translate(0)"/><path class="cls-4" d="M467.25,350.32c.39-.5.72-.93,1-1.36a13.8,13.8,0,0,1,.91,2.54c.06.33-.58.83-.91,1.26-.35-.83-.7-1.66-1-2.44Z" transform="translate(0)"/><path class="cls-4" d="M269.45,353.31c.61.42,1.24.88,1.88,1.33-.33.43-.72,1.25-1,1.2a8.15,8.15,0,0,1-2-1.2l1-1.33Z" transform="translate(0)"/><path class="cls-4" d="M404.25,356.55c-.45-.76-1.4-1.89-1.26-2.19,1-2.28,1.86-.73,2.53.53.21.38,0,1.1,0,1.66Z" transform="translate(0)"/><path class="cls-4" d="M408.23,358.76c-.33.42-.81,1.23-.92,1.15a6.21,6.21,0,0,1-1.72-1.71,2.06,2.06,0,0,1,0-1.58,1,1,0,0,1,1.23,0,13,13,0,0,1,1.4,2.16Z" transform="translate(0)"/><path class="cls-4" d="M280.5,366.57c.34-.78.69-1.61,1-2.44.32.43,1,.93.91,1.26a14.48,14.48,0,0,1-.91,2.53l-1-1.35Z" transform="translate(0)"/><path class="cls-4" d="M314.06,368.47c.39.51.71.93,1,1.34a8.69,8.69,0,0,1-2,1.2c-.24.05-.64-.78-1-1.2.63-.46,1.27-.91,1.88-1.34Z" transform="translate(0)"/><path class="cls-4" d="M335.1,460.25l-1,2.46c-.32-.42-1-.95-.91-1.25a13.75,13.75,0,0,1,.91-2.54l1,1.33Z" transform="translate(0)"/><path class="cls-4" d="M277.16,468.39a7.47,7.47,0,0,1-2,1.18c-.24.07-.63-.75-1-1.18a8.24,8.24,0,0,1,2-1.18c.24-.08.64.75,1,1.18Z" transform="translate(0)"/><path class="cls-4" d="M288.41,467.84c-.33.8-.68,1.63-1,2.46-.33-.43-1-1-.92-1.26a13,13,0,0,1,.92-2.53c.32.4.64.82,1,1.33Z" transform="translate(0)"/><path class="cls-4" d="M350.11,468.39a7.47,7.47,0,0,1-2,1.18c-.24.07-.63-.75-1-1.18a8.24,8.24,0,0,1,2-1.18c.24-.08.64.75,1,1.18Z" transform="translate(0)"/><path class="cls-4" d="M380.33,467l1.88,1.36c-.32.43-.72,1.25-1,1.18a7.47,7.47,0,0,1-2-1.18c.33-.43.65-.83,1-1.36Z" transform="translate(0)"/><path class="cls-4" d="M449.74,468.94c.34-.8.69-1.63,1-2.43.33.4,1,.92.92,1.23a14.25,14.25,0,0,1-.92,2.56c-.32-.43-.65-.86-1-1.36Z" transform="translate(0)"/><path class="cls-4" d="M325.73,447c-.61-.42-1.25-.9-1.88-1.35.32-.4.72-1.26,1-1.18a9.12,9.12,0,0,1,2,1.18l-1,1.35Z" transform="translate(0)"/><path class="cls-4" d="M290.71,448.1c.39.5.72.9,1,1.33a7.21,7.21,0,0,1-2,1.18c-.24.08-.63-.75-1-1.18l1.88-1.33Z" transform="translate(0)"/><path class="cls-4" d="M362.21,452.67c.38-.5.71-.93,1-1.33a14,14,0,0,1,.92,2.53c0,.33-.59.83-.92,1.26-.35-.83-.7-1.66-1-2.46Z" transform="translate(0)"/><path class="cls-4" d="M416.81,452.67l-1,2.46c-.33-.43-1-.93-.91-1.26a13.21,13.21,0,0,1,.91-2.53c.32.43.65.83,1,1.33Z" transform="translate(0)"/><path class="cls-4" d="M448.9,456.46c-.33.8-.68,1.63-1,2.46-.33-.42-1-.93-.92-1.25a13.79,13.79,0,0,1,.92-2.54c.32.43.64.83,1,1.33Z" transform="translate(0)"/><path class="cls-4" d="M410.35,484.91c-.61-.45-1.24-.9-1.88-1.35.33-.43.72-1.26,1-1.18a8,8,0,0,1,2,1.18l-1,1.35Z" transform="translate(0)"/><path class="cls-4" d="M378.87,486.79l-1,2.47c-.32-.43-1-1-.91-1.26a13.25,13.25,0,0,1,.91-2.54c.33.41.65.83,1,1.33Z" transform="translate(0)"/><path class="cls-4" d="M457.66,487.9c-.39.5-.72.93-1,1.36a14,14,0,0,1-.91-2.57c-.06-.3.59-.82.91-1.23.35.81.7,1.64,1,2.44Z" transform="translate(0)"/><path class="cls-4" d="M311.14,489.78c.39.53.71.93,1,1.36a8,8,0,0,1-2,1.18c-.24.07-.64-.75-1-1.18.63-.45,1.27-.9,1.88-1.36Z" transform="translate(0)"/><path class="cls-4" d="M431.4,491.69c-.39.5-.72.93-1,1.36a14.25,14.25,0,0,1-.92-2.56c-.05-.31.59-.83.92-1.23.35.8.7,1.63,1,2.43Z" transform="translate(0)"/><path class="cls-4" d="M392.58,474.09c-.45-.75-1.4-1.88-1.27-2.19,1-2.28,1.86-.72,2.54.53a2,2,0,0,1,0,1.58c-.21.28-.82.08-1.25.08Z" transform="translate(0)"/><path class="cls-4" d="M396.56,476.3c-.34.43-.81,1.23-.92,1.15a6.29,6.29,0,0,1-1.72-1.73,2,2,0,0,1,0-1.58,1,1,0,0,1,1.22,0,12.58,12.58,0,0,1,1.41,2.16Z" transform="translate(0)"/><path class="cls-4" d="M310.3,481.12c-.39-.5-.72-.93-1-1.36a8.38,8.38,0,0,1,2-1.18c.24-.07.63.76,1,1.18l-1.88,1.36Z" transform="translate(0)"/><path class="cls-4" d="M336.56,478.41c.61.45,1.25.9,1.88,1.35-.32.43-.72,1.26-1,1.18a8,8,0,0,1-2-1.18c.33-.42.65-.82,1-1.35Z" transform="translate(0)"/><path class="cls-4" d="M347.19,479.76a8,8,0,0,1-1.95,1.18c-.24.08-.64-.75-1-1.18a8.18,8.18,0,0,1,2-1.18c.24-.07.63.76.95,1.18Z" transform="translate(0)"/><path class="cls-4" d="M493.1,479.76a7.36,7.36,0,0,1-2,1.18c-.25.08-.64-.75-1-1.18a8.18,8.18,0,0,1,2-1.18c.24-.07.63.76,1,1.18Z" transform="translate(0)"/></g><ellipse class="cls-5" cx="253.52" cy="344.53" rx="84.75" ry="124.57" transform="translate(-127.53 538.89) rotate(-80.68)"/><path class="cls-6" d="M360.62,308.15c-10.36,34-38.39,62.25-75.66,77.82a172.55,172.55,0,0,1-66.46,13,179,179,0,0,1-29.67-2.47,169.15,169.15,0,0,1-29.23-7.64c19.68,17.56,47.76,30.95,80.19,36.27,67.89,11.15,129.08-17.26,136.66-63.45C379.5,343.13,373.4,324.5,360.62,308.15Z" transform="translate(0)"/><path d="M374.62,366.07A63.91,63.91,0,0,0,370,326.34,86.52,86.52,0,0,0,359.49,309a106,106,0,0,0-14-14.64,138.18,138.18,0,0,0-34.2-21.25,157.58,157.58,0,0,0-18.87-7,171.82,171.82,0,0,0-19.49-4.73A162.58,162.58,0,0,0,233.14,259a134.5,134.5,0,0,0-38.51,8.14c-12.19,4.58-23.55,11.25-32.56,20.09a60.46,60.46,0,0,0-17.58,31.86,59.1,59.1,0,0,0,4.95,35.66c5.19,11.24,13.27,21.25,22.8,29.65a124.09,124.09,0,0,0,15.24,11.56,148.42,148.42,0,0,0,16.79,9.45,154.76,154.76,0,0,0,17.93,7.36,169.41,169.41,0,0,0,18.72,5.32,185.71,185.71,0,0,0,38.78,4.58,149.81,149.81,0,0,0,19.62-1,127.4,127.4,0,0,0,19.39-3.75,104.82,104.82,0,0,0,18.54-7.06,82.14,82.14,0,0,0,16.64-11A62.29,62.29,0,0,0,374.62,366.07Zm1.77.36A73,73,0,0,1,357,403.05a108.06,108.06,0,0,1-35,23.87,132.7,132.7,0,0,1-20.32,7,149,149,0,0,1-21.23,3.73,155.32,155.32,0,0,1-43.09-1.9,186.72,186.72,0,0,1-21-5.35,156.2,156.2,0,0,1-20.2-8.1,152.33,152.33,0,0,1-18.91-11,137.22,137.22,0,0,1-17.09-13.85C149.55,387.23,140.52,375,134.79,361a75.92,75.92,0,0,1-4.41-44.85A74.42,74.42,0,0,1,153,277.66c10.94-10.09,24-17.14,37.62-21.81a145.49,145.49,0,0,1,42-7.34,172,172,0,0,1,42.08,4.07A181.91,181.91,0,0,1,295,258.52,154.42,154.42,0,0,1,314.22,267a142.11,142.11,0,0,1,33.83,24.57,114.24,114.24,0,0,1,13.49,15.9,94.11,94.11,0,0,1,10.09,18.17A71.16,71.16,0,0,1,376.39,366.43Z" transform="translate(0)"/><rect x="287.58" y="274.46" width="15" height="22" rx="7.5" transform="translate(79.23 -63.78) rotate(14.23)"/><rect x="212.58" y="269.46" width="15" height="22" rx="7.5" transform="translate(53.27 -34.61) rotate(10.22)"/><path d="M263.38,298.87c-2.86-5.81-8.55-9.77-14.37-10.18a16.48,16.48,0,0,0-8.4,1.48,17.24,17.24,0,0,0-3.55,2.22,8.93,8.93,0,0,0-2.43,2.82,3,3,0,0,0-.36,1.24,1.26,1.26,0,0,0,.21.72,3.5,3.5,0,0,0,2,1.21,25.14,25.14,0,0,0,4.13.39,17.83,17.83,0,0,1,14.61,8.6,17.59,17.59,0,0,1,2.25,5.52,16.88,16.88,0,0,1,.21,6.05,18.7,18.7,0,0,1-5.33,10.4,18,18,0,0,1-4.89,3.41,19.38,19.38,0,0,1-2.8,1c-.91.25-1.77.43-2.57.58a21.73,21.73,0,0,0-4,1,5.13,5.13,0,0,0-2.23,1.7,1.54,1.54,0,0,0-.12,1.68,6.75,6.75,0,0,0,2.32,2.42,22.7,22.7,0,0,0,16.74,3.32A24.41,24.41,0,0,0,270,334.42a23.65,23.65,0,0,1-14.26,13.39A25.84,25.84,0,0,1,245.37,349a25.46,25.46,0,0,1-10.15-3.18,12.18,12.18,0,0,1-4.58-4.2,7.64,7.64,0,0,1-1.08-3.72,7.79,7.79,0,0,1,.94-3.83,10.91,10.91,0,0,1,4.94-4.54,26.5,26.5,0,0,1,5.27-1.65c.77-.19,1.48-.37,2.12-.56a10.82,10.82,0,0,0,1.72-.69,10.67,10.67,0,0,0,2.94-2.17,11.88,11.88,0,0,0,3.3-6.54,10.32,10.32,0,0,0-1.43-6.94,12.08,12.08,0,0,0-5.52-4.9,11.29,11.29,0,0,0-3.72-.9,25,25,0,0,1-5.43-.92,10.34,10.34,0,0,1-3-1.55,7.63,7.63,0,0,1-2.45-2.94,7,7,0,0,1-.57-4,8.5,8.5,0,0,1,1.24-3.28,14.13,14.13,0,0,1,4.15-4.15,19,19,0,0,1,4.89-2.44,20.25,20.25,0,0,1,10.6-.6A18.42,18.42,0,0,1,263.38,298.87Z" transform="translate(0)"/><path class="cls-7" d="M307.51,424.12c-22-15.78-53.48-25.66-88.43-25.66a181.92,181.92,0,0,0-23,1.46c26.58,14.68,43.5,36.79,43.5,61.54a54.73,54.73,0,0,1-2.31,15.67h73.84a67.22,67.22,0,0,1-7.53-30.67A65.86,65.86,0,0,1,307.51,424.12Z" transform="translate(0)"/><path d="M306.84,424.33c-1-.57-2-1.11-2.92-1.67-.49-.28-.89-.55-1.43-.85l-1.57-.89c-1.05-.59-2.08-1.21-3.15-1.76l-3.22-1.64a136.77,136.77,0,0,0-13.25-5.68c-4.48-1.72-9.09-3.06-13.7-4.34s-9.32-2.23-14.05-3A174.87,174.87,0,0,0,225,402.13a177.37,177.37,0,0,0-28.41,2.11l1.55-8.13a108.77,108.77,0,0,1,20.59,13.7,84.45,84.45,0,0,1,16.73,18.86,66.11,66.11,0,0,1,9.5,24.09l.51,3.26c.13,1.1.18,2.2.27,3.3a49,49,0,0,1,.12,6.64,61.35,61.35,0,0,1-2,13.14l-6.6-8.87c6.15-.18,12.3-.32,18.46-.37s12.3,0,18.46.11q18.45.42,36.92,1.45l-5.09,8.3a72.87,72.87,0,0,1-4.58-14A66.46,66.46,0,0,1,300,451.25,62.64,62.64,0,0,1,301.84,437a58.24,58.24,0,0,1,2.12-6.76q.62-1.65,1.35-3.24c.23-.53.49-1.06.74-1.59a2.27,2.27,0,0,1,.35-.57Zm1.33-.42c0,.33-.06.7-.12,1.08s-.16.81-.2,1c-.1.56-.2,1.11-.28,1.67-.19,1.12-.32,2.24-.47,3.35-.29,2.22-.4,4.44-.49,6.65a67.13,67.13,0,0,0,.89,13,66,66,0,0,0,3.27,12.37,70.91,70.91,0,0,0,5.43,11.44l4.52,7.75-9.61.55q-18.47,1-36.92,1.45c-6.16.12-12.31.17-18.46.1s-12.31-.18-18.46-.37l-9.55-.28,2.94-8.59A47.78,47.78,0,0,0,233,465a35,35,0,0,0,.26-5.22c0-.88,0-1.75,0-2.63l-.24-2.62c0-.44-.06-.88-.13-1.31l-.23-1.31-.46-2.61-.7-2.56-.35-1.29c-.14-.42-.3-.84-.45-1.26l-.9-2.53c-.34-.83-.73-1.64-1.09-2.47-.69-1.66-1.63-3.22-2.48-4.83a74.15,74.15,0,0,0-13.94-17.14A106.89,106.89,0,0,0,194,403.74l-11.49-6.82,13-1.32a185,185,0,0,1,29.76-.6,178.43,178.43,0,0,1,29.32,4.31c4.82,1.08,9.55,2.49,14.25,4s9.29,3.29,13.76,5.34c2.27.95,4.46,2.08,6.67,3.15,1.1.54,2.16,1.17,3.24,1.75s2.17,1.15,3.21,1.81l3.14,1.91c1.05.64,2.05,1.35,3.07,2l1.53,1c.51.34,1.08.78,1.61,1.18C306.15,422.28,307.18,423.11,308.17,423.91Z" transform="translate(0)"/><path class="cls-8" d="M317.05,480a67,67,0,0,1-7.47-30.54c0-7.72,3.24-22.56-2.58-25.46-7-3-110-27-123.92-24.21,4.33,2.4,43.5,44,43.5,61.54A54.73,54.73,0,0,1,224.27,477Z" transform="translate(0)"/><path class="cls-9" d="M196.13,400.28c-20.85-11.75-47.66-18.82-76.9-18.82-32.38,0-61.76,8.67-83.4,22.76v49.92A24.62,24.62,0,0,0,60.19,479H237.27a56.79,56.79,0,0,0,2.31-16C239.58,437.8,222.68,415.24,196.13,400.28Z" transform="translate(0)"/><path d="M195.64,401.15a127.93,127.93,0,0,0-18.95-8.46c-1.64-.58-3.29-1.09-4.95-1.58s-3.33-1-5-1.41q-5-1.35-10.13-2.21c-3.4-.59-6.82-1.06-10.24-1.44s-6.88-.53-10.31-.65a144.89,144.89,0,0,0-20.53.83c-.85.09-1.69.15-2.54.27l-2.53.36c-1.69.24-3.37.5-5,.82-3.34.59-6.66,1.28-9.93,2.11A150.91,150.91,0,0,0,76.39,396a136.1,136.1,0,0,0-17.69,8.53A122.23,122.23,0,0,0,43,415.25l6-11c.52,5.54,1,11.07,1.47,16.6l.67,8.31.56,8.3.55,8.3.41,8.3a.35.35,0,0,0,0,.16l0,.09,0,.18c0,.11,0,.23.07.35a3.9,3.9,0,0,0,.18.67l.09.32c.05.11.1.21.14.31a3.28,3.28,0,0,0,.28.6c.13.18.17.39.29.57a4.37,4.37,0,0,1,.32.55,3.75,3.75,0,0,1,.38.51c.12.17.3.3.41.46a7.6,7.6,0,0,0,1.89,1.43c.19,0,.33.19.51.23a3.06,3.06,0,0,1,.49.22,2.24,2.24,0,0,1,.5.16c.16.06.34.05.5.11-.46.25,7.38,0,12.45.08l16.6.18,16.61.49c22.13.85,44.27,2.52,66.41,4.71l33.2,3.44,16.61,1.72c5.53.58,11.06,1.16,16.6,1.65l-5.54,4.16a48.77,48.77,0,0,0,3-10.54,39.1,39.1,0,0,0,.55-5.52c0-.93.1-1.87.12-2.8l-.11-2.81-.06-1.41-.2-1.4-.39-2.81c-.18-.93-.4-1.85-.6-2.78a23.93,23.93,0,0,0-.71-2.77l-.84-2.75c-.29-.92-.67-1.8-1-2.7a55.58,55.58,0,0,0-2.46-5.25,29,29,0,0,0-1.42-2.55c-.5-.83-1-1.69-1.5-2.51l-1.65-2.43-.83-1.22c-.29-.39-.61-.76-.92-1.15-1.23-1.52-2.45-3.07-3.81-4.5l-2-2.17-2.12-2.07a80.15,80.15,0,0,0-9.13-7.6c-1.59-1.18-3.27-2.24-4.9-3.37S197.34,402.19,195.64,401.15Zm1-1.74a109.39,109.39,0,0,1,19.77,14l2.25,2.05,2.13,2.16c1.46,1.42,2.77,3,4.1,4.51.68.75,1.3,1.56,1.91,2.38l1.86,2.42c.58.84,1.13,1.69,1.7,2.54s1.15,1.68,1.63,2.58a59.49,59.49,0,0,1,2.88,5.4c.43.93.91,1.83,1.29,2.78l1.11,2.86a29.19,29.19,0,0,1,1,2.91c.29,1,.6,2,.87,2.94l.64,3,.32,1.5.2,1.53.4,3.05c.07,1,.1,2,.15,3.07a45.09,45.09,0,0,1-.06,6.15,58.41,58.41,0,0,1-2.16,12.09l-.29,1h-1l-132.82.5L71.24,481h-8.3a35.51,35.51,0,0,1-8.7-.74,26.14,26.14,0,0,1-14.69-9.61A27.18,27.18,0,0,1,34,454l.06-16.6.13-33.21v-.89l.74-.48A138.85,138.85,0,0,1,73.66,386a171.28,171.28,0,0,1,41.75-5.79,174.59,174.59,0,0,1,41.89,4.25A146.4,146.4,0,0,1,196.62,399.41Z" transform="translate(0)"/><path class="cls-10" d="M425.41,358.33c-56.94,0-104.81,27.88-118.59,65.66a65,65,0,0,0-4,22.34A66.23,66.23,0,0,0,310.49,477H453.94a25.68,25.68,0,0,0,25.89-25.46V367.47A162.35,162.35,0,0,0,425.41,358.33Z" transform="translate(0)"/><path d="M425.41,359.33c-16.42.16-32.91,2.74-48.17,8.55-1.92.69-3.8,1.46-5.67,2.26s-3.72,1.64-5.52,2.57a105.72,105.72,0,0,0-10.58,5.88,117.22,117.22,0,0,0-9.79,6.92,103.7,103.7,0,0,0-8.78,7.92,83.78,83.78,0,0,0-13.66,18.32,70.46,70.46,0,0,0-4.41,10l-.81,2.54c-.26.85-.45,1.72-.68,2.56a48.79,48.79,0,0,0-1,5.12,54.12,54.12,0,0,0-.52,10.13,49.53,49.53,0,0,0,1.32,9.78,57.15,57.15,0,0,0,7.49,17.81l-14.12-8.59q33.48-2.25,67-2.05t67,2.77l8.37.69,1.59.13a8.16,8.16,0,0,0,1,.11,8.42,8.42,0,0,1,1,.05c.33,0,.66-.05,1-.05a13.56,13.56,0,0,0,4-1,14.07,14.07,0,0,0,3.66-2.35,13,13,0,0,0,2.87-3.53,13.58,13.58,0,0,0,.95-2.17,5.42,5.42,0,0,0,.35-1.17l.15-.6a3.57,3.57,0,0,0,.14-.77l1.76-16.74c2.42-22.32,4.64-44.64,5.95-67l1.77,2.5a136.54,136.54,0,0,0-12.85-4.65A123.21,123.21,0,0,0,452.78,362a125,125,0,0,0-13.61-2Q432.32,359.4,425.41,359.33Zm0-2a164.31,164.31,0,0,1,54.83,9l.8.29v.86l.25,67,.07,16.74a28.82,28.82,0,0,1-1.32,8.72,26.63,26.63,0,0,1-4.12,7.84,27.31,27.31,0,0,1-6.39,6.12,28.72,28.72,0,0,1-8,3.75c-.72.18-1.43.38-2.16.54l-2.2.34c-.73.11-1.48.1-2.22.16s-1.46.06-2.15.05l-8.37,0-67,.26-67-.22h-1.08l-.49-.95a68.94,68.94,0,0,1-7.34-24.2,65.79,65.79,0,0,1,2.16-25.17,60.7,60.7,0,0,1,2-6c.4-1,.76-2,1.19-2.93l1.34-2.87a83.46,83.46,0,0,1,6.48-10.84A95.4,95.4,0,0,1,332,387.54c13-10.63,28.24-18.13,44.14-23.05A166,166,0,0,1,425.41,357.33Z" transform="translate(0)"/><rect x="426.58" y="369.46" width="11" height="25" rx="5.5" transform="translate(107.16 -94.5) rotate(14.23)"/><rect x="373.26" y="372.54" width="11" height="19.47" rx="5.5" transform="translate(105.6 -81.38) rotate(14.23)"/><rect x="112.58" y="389.46" width="9" height="18" rx="4.5" transform="translate(-88.51 37.61) rotate(-13.3)"/><rect x="154.58" y="391.46" width="9" height="18" rx="4.5" transform="translate(-87.84 47.33) rotate(-13.3)"/><rect x="235.87" y="408.43" width="9" height="18" rx="4.5"/><rect x="274.87" y="413.43" width="9" height="18" rx="4.5"/><path d="M130.26,229.26c7.06,6.92,13.75,14.14,20.55,21.18s13.74,13.89,21,20.28c1.84,1.59,3.68,3.17,5.56,4.69s3.78,3,5.71,4.49c3.86,2.93,7.85,5.69,11.91,8.37a254.69,254.69,0,0,0,25.57,14.39,118,118,0,0,1-27.57-11,135.17,135.17,0,0,1-24.47-17.14A188.91,188.91,0,0,1,147.92,253,275.54,275.54,0,0,1,130.26,229.26Z" transform="translate(0)"/><path d="M101.93,331.46c10,2,19.85,3.7,29.78,5s19.91,2,29.9,2.23,20-.06,30-.76,20-1.62,29.65-4.72A60.55,60.55,0,0,1,207,338.8a145.18,145.18,0,0,1-15,3,174,174,0,0,1-30.52,1.87,177.16,177.16,0,0,1-30.39-3.38A153.27,153.27,0,0,1,101.93,331.46Z" transform="translate(0)"/><path d="M110,293c3.77,1.21,7.28,2.64,10.79,4l10.42,4.24,10.41,4.27c3.49,1.46,7,2.91,10.53,4.7a44.68,44.68,0,0,1-11.67-.94,61.18,61.18,0,0,1-11.16-3.4,63.13,63.13,0,0,1-10.34-5.4A45.3,45.3,0,0,1,110,293Z" transform="translate(0)"/><ellipse class="cls-9" cx="71.37" cy="437.43" rx="37.5" ry="33"/><polygon class="cls-11" points="211.47 315.44 195.43 314.87 200.01 326.68 211.47 315.44 195.43 314.87 200.01 326.68 211.47 315.44"/><rect class="cls-11" x="128.23" y="267.11" width="12.7" height="12.7" transform="translate(111.46 -30.45) rotate(21.85)"/><circle class="cls-12" cx="270.58" cy="145.46" r="12"/><path class="cls-2" d="M282.58,145.46a12.75,12.75,0,0,1-21.39,9.39,12.81,12.81,0,0,1,0-18.79,12.76,12.76,0,0,1,21.4,9.4Zm0,0a11.31,11.31,0,0,0-3.66-8.34,11.28,11.28,0,1,0,0,16.68,11.31,11.31,0,0,0,3.66-8.34Z" transform="translate(0)"/><circle class="cls-12" cx="85.58" cy="281.46" r="8"/><path class="cls-2" d="M93.58,281.46A8.76,8.76,0,0,1,79,288a8.84,8.84,0,0,1,0-13.15,8.77,8.77,0,0,1,14.57,6.58Zm0,0A7.35,7.35,0,0,0,91.09,276a7.28,7.28,0,1,0,0,11A7.34,7.34,0,0,0,93.58,281.46Z" transform="translate(0)"/><circle class="cls-12" cx="261.58" cy="61.46" r="9"/><path class="cls-2" d="M270.58,61.46a9.75,9.75,0,0,1-16.27,7.27,10.06,10.06,0,0,1-2.38-3.27,10.18,10.18,0,0,1-.85-4,9.87,9.87,0,0,1,3.22-7.28,9.75,9.75,0,0,1,7.28-2.48,9.8,9.8,0,0,1,9,9.76Zm0,0a8.39,8.39,0,0,0-2.78-6.22,8.24,8.24,0,0,0-6.22-2,8.29,8.29,0,0,0,0,16.5,8.22,8.22,0,0,0,6.22-2A8.39,8.39,0,0,0,270.58,61.46Z" transform="translate(0)"/><circle class="cls-12" cx="345.58" cy="52.46" r="6"/><path class="cls-2" d="M351.58,52.46a6.78,6.78,0,0,1-6,6.74,6.67,6.67,0,0,1-5.15-1.59,6.84,6.84,0,0,1,0-10.31,6.77,6.77,0,0,1,11.16,5.16Zm0,0a5.34,5.34,0,0,0-1.9-4.1,5.21,5.21,0,0,0-7.42.77,5.31,5.31,0,0,0,3.32,8.58,5.22,5.22,0,0,0,4.1-1.15A5.38,5.38,0,0,0,351.58,52.46Z" transform="translate(0)"/><circle class="cls-12" cx="95.58" cy="109.46" r="6"/><path class="cls-2" d="M101.58,109.46a6.78,6.78,0,0,1-6,6.74,6.67,6.67,0,0,1-5.15-1.59,6.84,6.84,0,0,1,0-10.31,6.77,6.77,0,0,1,11.16,5.16Zm0,0a5.34,5.34,0,0,0-1.9-4.1,5.21,5.21,0,0,0-7.42.77,5.31,5.31,0,0,0,3.32,8.58,5.22,5.22,0,0,0,4.1-1.15A5.38,5.38,0,0,0,101.58,109.46Z" transform="translate(0)"/><circle class="cls-12" cx="398.08" cy="261.79" r="11"/><path class="cls-2" d="M409.08,261.79a11.75,11.75,0,0,1-19.69,8.69,12.18,12.18,0,0,1-2.8-3.92,11.8,11.8,0,0,1,2.8-13.46,11.68,11.68,0,0,1,8.69-3.06,11.79,11.79,0,0,1,11,11.75Zm0,0a10.24,10.24,0,0,0-3.37-7.63,10.18,10.18,0,0,0-7.63-2.61,10.28,10.28,0,1,0,11,10.24Z" transform="translate(0)"/><circle class="cls-12" cx="436.58" cy="117.46" r="8"/><path class="cls-2" d="M444.58,117.46A8.76,8.76,0,0,1,430,124a8.84,8.84,0,0,1,0-13.15,8.77,8.77,0,0,1,14.57,6.58Zm0,0a7.35,7.35,0,0,0-2.49-5.51,7.28,7.28,0,1,0,0,11A7.34,7.34,0,0,0,444.58,117.46Z" transform="translate(0)"/><circle class="cls-12" cx="213.58" cy="204.46" r="8"/><path class="cls-2" d="M221.58,204.46A8.76,8.76,0,0,1,207,211a8.84,8.84,0,0,1,0-13.15,8.77,8.77,0,0,1,14.57,6.58Zm0,0a7.35,7.35,0,0,0-2.49-5.51,7.28,7.28,0,1,0,0,11A7.34,7.34,0,0,0,221.58,204.46Z" transform="translate(0)"/><circle class="cls-12" cx="73.58" cy="232.46" r="4"/><path class="cls-2" d="M77.58,232.46a4.76,4.76,0,0,1-1,3,4.73,4.73,0,0,1-6.72.77,4.86,4.86,0,0,1,0-7.49,4.7,4.7,0,0,1,3.74-1,4.81,4.81,0,0,1,4,4.76Zm0,0a3.38,3.38,0,0,0-1.31-2.68,3.19,3.19,0,0,0-4.6.77,3.4,3.4,0,0,0-.59,1.91,3.33,3.33,0,0,0,.59,1.91,3.14,3.14,0,0,0,1.91,1.34,3.22,3.22,0,0,0,2.69-.57A3.38,3.38,0,0,0,77.58,232.46Z" transform="translate(0)"/><polygon class="cls-2" points="119.89 115.46 107.19 133.46 132.58 133.46 119.89 115.46 107.19 133.46 132.58 133.46 119.89 115.46"/><path d="M119.89,115.46c-2.12,3.34-4.09,6.6-6,9.75l-2.78,4.62c-.91,1.52-1.85,3-2.78,4.46L107.19,132c4.23-.21,8.47-.36,12.7-.49l6.35-.2,6.34-.15-1.86,3.61-6.48-8.91-6.4-9h4.09l-6.39,9q-3.21,4.47-6.48,8.91l-1.87-3.61,6.35.14c2.12,0,4.23.13,6.35.2,4.23.13,8.46.28,12.69.5l-1.18,2.28c-.93-1.47-1.87-2.93-2.78-4.46l-2.78-4.62C124,122.07,122,118.8,119.89,115.46Zm0,0c2.11,2.65,4.38,5.39,6.74,8.24l3.57,4.38c1.2,1.48,2.38,3,3.57,4.54l1.67,2.14-2.86.15c-4.23.22-8.46.37-12.69.5-2.12.06-4.23.16-6.35.2l-6.35.14-4.39.1,2.52-3.71q3.09-4.56,6.22-9.09l6.3-9,2-2.93,2,2.93,6.3,9,6.22,9.09,2.54,3.7-4.41-.1-6.34-.14-6.35-.2c-4.23-.13-8.47-.28-12.7-.5l-2.84-.14,1.66-2.13c1.19-1.53,2.36-3.07,3.57-4.54l3.57-4.38C115.51,120.85,117.77,118.11,119.89,115.46Z" transform="translate(0)"/><polygon class="cls-2" points="63.91 347.06 66.36 368.95 85.36 352.1 63.91 347.06 66.36 368.95 85.36 352.1 63.91 347.06"/><path d="M63.91,347.06c.64,3.91,1.33,7.65,2,11.25l1,5.3c.34,1.74.6,3.46.89,5.18l-2.4-.92c3-3,6.09-5.89,9.17-8.8l4.62-4.36,4.65-4.32,1,3.94L74.08,352l-10.74-2.47,3.06-2.71,1.17,11q.57,5.49,1.07,11l-3.8-1.46,4.85-4.11c1.6-1.37,3.25-2.71,4.88-4.06,3.25-2.71,6.51-5.41,9.82-8.06l.64,2.5c-1.68-.49-3.35-1-5-1.49l-5.15-1.62C71.36,349.29,67.72,348.16,63.91,347.06Zm0,0c3.35.58,6.86,1.13,10.52,1.7l5.57.9c1.89.31,3.79.68,5.69,1l2.67.49-2,2c-3,3-6.09,5.9-9.17,8.8-1.54,1.46-3.06,2.93-4.61,4.37l-4.66,4.31-3.21,3-.59-4.44c-.47-3.65-.94-7.29-1.37-10.93l-1.28-10.94L61,343.79l3.47.84,10.7,2.57,10.69,2.67L90.23,351l-3.36,2.85L82,357.92,77.15,362q-4.87,4.06-9.83,8l-2.22,1.78-.17-2.7c-.13-1.93-.27-3.86-.34-5.76l-.24-5.65C64.22,354,64.1,350.45,63.91,347.06Z" transform="translate(0)"/><polygon class="cls-2" points="434.93 310.86 419.54 319.77 438.16 328.34 434.93 310.86 419.54 319.77 438.16 328.34 434.93 310.86"/><path d="M434.92,310.86c-2.7,1.8-5.24,3.58-7.65,5.3l-3.54,2.5c-1.15.83-2.31,1.59-3.47,2.36l-.12-2.56c3.2,1.23,6.36,2.52,9.52,3.83,1.58.66,3.17,1.29,4.74,2l4.71,2-3.2,2.49c-.6-2.9-1.2-5.81-1.77-8.71s-1.11-5.83-1.67-8.74l3.71,1.71c-2.58,1.47-5.13,3-7.72,4.41s-5.17,2.9-7.77,4.33l-.19-4.07,4.59,2.27c1.54.75,3.05,1.55,4.58,2.33,3,1.55,6.08,3.11,9.1,4.73l-2,1.59c-.16-1.38-.34-2.76-.46-4.17l-.4-4.32C435.61,317.18,435.32,314.09,434.92,310.86Zm0,0c.69,2.6,1.47,5.34,2.29,8.22l1.22,4.42c.42,1.5.78,3,1.16,4.58l.64,2.61-2.68-1c-3.19-1.23-6.36-2.52-9.52-3.83-1.57-.66-3.16-1.29-4.73-2l-4.72-2-4-1.72,3.84-2.34q3.8-2.32,7.62-4.59c2.54-1.53,5.11-3,7.66-4.5l3.09-1.81.62,3.52c.52,2.91,1.07,5.82,1.56,8.75s1,5.84,1.47,8.77l.71,4.43-3.92-1.94-4.59-2.27c-1.53-.76-3.05-1.55-4.57-2.33-3.05-1.54-6.09-3.11-9.1-4.74l-2.52-1.35,2.4-1.21c1.41-.71,2.81-1.44,4.22-2.09l4.15-2C429.92,313.22,432.51,312,434.92,310.86Z" transform="translate(0)"/><polygon class="cls-2" points="413.38 146.76 381.22 145.62 390.41 169.29 413.38 146.76 381.22 145.62 390.41 169.29 413.38 146.76"/><path d="M413.38,146.76c-2.84,0-5.7,0-8.46,0l-8.16.17-7.88.18-7.71.06,1.52-2.14c1.7,3.88,3.3,7.8,4.94,11.7l2.45,5.86,2.39,5.88-3.61-.78c3.78-3.8,7.51-7.65,11.34-11.41L411.63,145l1.66,4.28-16.08-.66c-5.35-.19-10.71-.51-16.06-.77l2.14-3q2.22,5.94,4.35,11.93c1.41,4,2.88,8,4.25,12l-2.59-.56L395,163l5.94-5.17,6.14-5.38C409.17,150.61,411.3,148.7,413.38,146.76Zm0,0c-1.76,1.81-3.46,3.66-5.23,5.58l-5.34,5.88c-1.82,2-3.65,4.05-5.54,6.09l-5.75,6.11-1.6,1.7-1-2.26c-1.69-3.88-3.29-7.8-4.93-11.7s-3.26-7.82-4.84-11.74l-1.24-3.09,3.38.07c5.36.12,10.73.18,16.09.37l16.07.49,5.89.18-4.22,4.1-11.55,11.21c-3.82,3.75-7.75,7.41-11.62,11.12l-2.45,2.34-1.16-3.12-2.2-6-2.14-6c-1.42-4-2.89-8-4.26-12l-.79-2.32,2.32.17,8.36.63,8.2.76,7.91.74C408.35,146.39,410.86,146.6,413.38,146.76Z" transform="translate(0)"/><rect class="cls-2" x="177.58" y="95.46" width="28" height="28"/><path d="M205.58,123.46,199,124l-6.92.56-7.16.47c-2.42.16-4.86.24-7.31.34l-1.85.08-.09-2c-.22-4.67-.33-9.33-.42-14s-.13-9.33-.14-14V93h2.5c4.67,0,9.34,0,14,.13s9.34.2,14,.42l2,.09-.08,1.86c-.1,2.45-.18,4.89-.34,7.31l-.47,7.16-.56,6.92Zm0,0L204.45,109l-.48-6.84c-.15-2.25-.23-4.47-.34-6.69l2,2c-4.66.22-9.33.32-14,.42s-9.33.12-14,.13l2.5-2.5c0,4.67,0,9.33-.13,14s-.21,9.33-.42,14l-1.95-1.94c2.22.1,4.45.18,6.7.34l6.84.47Z" transform="translate(0)"/><rect class="cls-2" x="117.15" y="175.02" width="12.87" height="12.87" transform="translate(-92.65 219.45) rotate(-65.71)"/><path d="M126.8,190c-.88-.18-1.82-.41-2.81-.64s-2-.52-3.09-.78c-2.14-.58-4.39-1.28-6.64-2.09l-1.67-.6.69-2c.71-2,1.48-4,2.28-6s1.65-4,2.53-5.92l1-2.29,2.28,1q2.94,1.32,5.82,2.76c1.91,1,3.82,2,5.7,3l1.84,1-.86,1.56c-1.15,2.09-2.38,4.11-3.6,5.95-.61.92-1.21,1.81-1.8,2.63S127.34,189.26,126.8,190Zm0,0,1-3.52.85-3.24c.54-2.07,1.08-4,1.7-5.78l1,2.6c-2-.71-4-1.48-6-2.28s-4-1.65-5.92-2.53l3.3-1.25c-.89,1.95-1.8,3.9-2.77,5.81s-2,3.83-3,5.7l-1-2.59c1.67,1,3.33,2,5.1,3.22l2.78,1.86Z" transform="translate(0)"/><rect class="cls-2" x="320.58" y="196.46" width="22" height="22" transform="translate(-49.58 295.23) rotate(-45)"/><path d="M347.14,207.46l-3.21,4-3.44,4.22L336.82,220c-1.24,1.46-2.54,2.91-3.85,4.36l-1.25,1.38-1.52-1.38c-2.73-2.46-5.41-5-8.07-7.49s-5.27-5.1-7.87-7.68l-1.78-1.77,1.78-1.77c2.6-2.59,5.21-5.16,7.87-7.69s5.33-5,8.06-7.49l1.53-1.37,1.25,1.37c2.64,2.88,5.13,5.84,7.53,8.7l3.43,4.23Zm0,0-8.91-7.31c-2.79-2.33-5.49-4.55-8-6.86H333c-2.45,2.73-5,5.41-7.49,8.07s-5.1,5.27-7.69,7.87v-3.54q3.88,3.9,7.69,7.87c2.53,2.66,5,5.34,7.49,8.07H330.2c1.28-1.15,2.58-2.29,3.92-3.42l4.11-3.44Z" transform="translate(0)"/><rect class="cls-2" x="440.89" y="217.76" width="13.39" height="13.39" transform="translate(11.18 469.94) rotate(-55.99)"/><path d="M449.39,233.75c-.87-.35-1.8-.76-2.77-1.18s-2-.9-3-1.37c-2.08-1-4.26-2.09-6.41-3.31l-1.55-.89,1-1.83c1.09-2,2.23-3.88,3.4-5.78s2.4-3.77,3.64-5.62l1.39-2.09,2.08,1.41c1.84,1.26,3.67,2.53,5.47,3.85s3.58,2.68,5.33,4.08l1.64,1.33-1.11,1.4c-1.54,1.94-3.13,3.8-4.7,5.48-.78.83-1.55,1.64-2.29,2.39S450.07,233.1,449.39,233.75Zm0,0,1.61-3.42,1.45-3.15c.94-2,1.83-3.86,2.8-5.63l.53,2.73c-2-1.09-3.88-2.23-5.78-3.41s-3.77-2.39-5.62-3.63l3.47-.68c-1.26,1.85-2.53,3.68-3.86,5.48s-2.67,3.57-4.08,5.32l-.52-2.72c1.55,1.28,3.07,2.65,4.69,4.17l2.53,2.38Z" transform="translate(0)"/><circle class="cls-2" cx="280.87" cy="416.43" r="2"/><circle class="cls-2" cx="382.87" cy="377.43" r="2"/><circle class="cls-2" cx="436.87" cy="375.43" r="2"/><circle class="cls-2" cx="241.87" cy="411.43" r="2"/><circle class="cls-2" cx="158.87" cy="394.43" r="2"/><circle class="cls-2" cx="116.87" cy="392.43" r="2"/><circle class="cls-2" cx="298.87" cy="281.43" r="3"/><circle class="cls-2" cx="222.87" cy="275.43" r="3"/><path class="cls-10" d="M317.87,425.43s-8,22-4,40,15,14,15,14l133-6,13-17,5-36-59,8Z" transform="translate(0)"/><polygon class="cls-9" points="42.87 431.44 40.53 463.94 59.87 479.44 231.44 477.44 233.87 471.44 42.87 431.44"/><path class="cls-13" d="M43.18,397.93c-2.47,1.37-4.88,2.79-7.18,4.29v49.92A24.61,24.61,0,0,0,60.35,477H237.44a56.79,56.79,0,0,0,2.31-16A56,56,0,0,0,238,447a172.55,172.55,0,0,1-66.46,13C116.24,460,68.13,434.93,43.18,397.93Z" transform="translate(0)"/><path class="cls-13" d="M400,451a172.55,172.55,0,0,1-66.46,13,179,179,0,0,1-29.67-2.47A69.14,69.14,0,0,0,309.66,477H453.1A25.68,25.68,0,0,0,479,451.54V367.47l-1.68-.58C468.64,403.66,439.5,434.45,400,451Z" transform="translate(0)"/><g class="cls-3"><path class="cls-2" d="M129.26,231.26c6.56,7.33,13,14.74,19.68,22a282.71,282.71,0,0,0,20.92,20.63,174.6,174.6,0,0,0,23.56,17.42,188,188,0,0,0,26.17,13.39,141.23,141.23,0,0,1-27-12.05c-4.29-2.45-8.44-5.16-12.47-8s-7.87-6-11.61-9.23a224.56,224.56,0,0,1-20.76-21.09C141.31,246.83,135.22,239.08,129.26,231.26Z" transform="translate(0)"/></g><g class="cls-3"><path class="cls-2" d="M100.93,333.46a281.07,281.07,0,0,0,29.6,6.12,251.87,251.87,0,0,0,30,2.58c2.51.08,5,.06,7.54.09s5-.06,7.54-.18,5-.19,7.53-.39,5-.39,7.52-.62c10-1.05,20.08-2.17,29.52-5.88a67.58,67.58,0,0,1-14.36,4.89c-5,1.13-10,1.88-15,2.54a199.85,199.85,0,0,1-30.35,1.54,204.4,204.4,0,0,1-30.24-3A190.66,190.66,0,0,1,100.93,333.46Z" transform="translate(0)"/></g><g class="cls-3"><path class="cls-2" d="M110,294c3.43,1.73,6.82,3.46,10.25,5.08s6.88,3.18,10.4,4.59,7,2.76,10.63,4,7.21,2.39,10.87,3.56a70.34,70.34,0,0,1-11.33-2.07,89.87,89.87,0,0,1-10.93-3.66,88.56,88.56,0,0,1-10.36-5.06A70,70,0,0,1,110,294Z" transform="translate(0)"/></g><rect class="cls-14" x="35.58" y="35.13" width="442" height="442.31" rx="30"/></g></g></svg>